<svg width="25" height="22" viewBox="0 0 25 22" fill="none" xmlns="http://www.w3.org/2000/svg">
<path d="M3.02439 16.989C2.78293 16.9941 2.54115 16.9655 2.30759 16.9041C1.89709 16.7901 1.52326 16.5714 1.22263 16.2695C0.922 15.9677 0.705031 15.5931 0.592747 15.1821C0.513304 14.8636 0.482184 14.5349 0.499974 14.207V3.44092C3.43331 5.18625 6.36397 6.93408 9.29197 8.68408C9.55256 8.85477 9.82714 9.00344 10.1123 9.12891C10.681 9.3435 11.3082 9.3435 11.8769 9.12891C12.1652 9.00316 12.4424 8.85297 12.7051 8.67993C15.6384 6.9346 18.569 5.18701 21.497 3.43701V9.16797C20.1877 8.68889 18.7658 8.60919 17.4111 8.93896C15.8364 9.32123 14.4349 10.2205 13.4316 11.4929C12.2027 13.0439 11.6352 15.0173 11.8525 16.9841L3.02439 16.989ZM10.5967 7.54712C7.34199 5.61379 4.08889 3.67644 0.836888 1.73511C1.04538 1.36321 1.34874 1.05308 1.71579 0.836182C2.08285 0.619284 2.50039 0.503228 2.92673 0.5H19.0742C19.5007 0.503937 19.9181 0.620492 20.2851 0.837891C20.6521 1.05529 20.9556 1.36585 21.164 1.73804C17.922 3.67137 14.6776 5.60234 11.4316 7.53101C11.3018 7.61318 11.1516 7.65655 10.998 7.65601C10.8583 7.65628 10.7206 7.61872 10.6006 7.54712H10.5967Z" fill="#0057D1"/>
<path d="M18.497 10.48C19.5612 10.3352 20.6441 10.5235 21.597 11.019C22.5587 11.5091 23.361 12.2628 23.91 13.192C24.6225 14.3927 24.8822 15.8085 24.6424 17.1838C24.4025 18.5592 23.6788 19.8034 22.602 20.692C21.7534 21.3852 20.7187 21.8119 19.6282 21.9187C18.5377 22.0254 17.44 21.8074 16.473 21.292C15.3614 20.6978 14.477 19.7532 13.957 18.605C13.7188 18.0754 13.5578 17.5144 13.479 16.939C13.2776 15.7892 13.4677 14.605 14.019 13.576C14.4717 12.7461 15.1126 12.0337 15.8902 11.4961C16.6679 10.9585 17.5606 10.6105 18.497 10.48ZM18.272 13.635C18.263 14.427 18.272 15.218 18.272 16.01C18.2638 16.1483 18.2776 16.2871 18.313 16.421C18.3655 16.5842 18.4679 16.7267 18.6056 16.8286C18.7434 16.9305 18.9097 16.9866 19.081 16.989C19.8897 16.989 20.6983 16.989 21.507 16.989C21.7166 16.9828 21.916 16.8969 22.0645 16.7488C22.213 16.6007 22.2995 16.4016 22.3062 16.1919C22.313 15.9823 22.2396 15.778 22.1009 15.6207C21.9623 15.4633 21.7688 15.3647 21.56 15.345C21.003 15.336 20.446 15.345 19.888 15.345C19.888 14.794 19.888 14.245 19.888 13.693C19.8928 13.4808 19.8137 13.2753 19.6679 13.1211C19.5221 12.9668 19.3213 12.8763 19.1092 12.8692C18.8971 12.8621 18.6907 12.939 18.5349 13.0831C18.3791 13.2272 18.2864 13.427 18.277 13.639L18.272 13.635Z" fill="#FF9900"/>
</svg>
