<svg width="25" height="36" viewBox="0 0 25 36" fill="none" xmlns="http://www.w3.org/2000/svg">
<path d="M22.3856 0.142062C22.5618 0.0385031 22.7648 -0.0104124 22.9688 0.00151552C23.1728 0.0134434 23.3687 0.0856769 23.5316 0.209062C23.7072 0.317339 23.846 0.476018 23.93 0.664394C24.0141 0.852769 24.0394 1.0621 24.0026 1.26506L20.7686 20.6711C20.7388 20.8328 20.6723 20.9855 20.5742 21.1174C20.476 21.2494 20.3489 21.357 20.2026 21.4321C20.0665 21.5196 19.9098 21.5698 19.7481 21.5777C19.5865 21.5856 19.4256 21.5509 19.2816 21.4771L13.6706 19.1441L10.8406 22.6031C10.7512 22.7278 10.6331 22.8292 10.4963 22.8988C10.3596 22.9684 10.2081 23.0041 10.0546 23.0031C9.75803 23.0097 9.4696 22.9056 9.24562 22.7111C9.13101 22.6065 9.04127 22.4775 8.98296 22.3337C8.92464 22.19 8.89924 22.0349 8.90862 21.8801V18.2901L19.7346 5.08306C19.7563 5.05905 19.7725 5.03061 19.7821 4.99971C19.7916 4.96882 19.7944 4.93621 19.7901 4.90415C19.7858 4.87209 19.7746 4.84134 19.7573 4.81404C19.7399 4.78675 19.7168 4.76355 19.6896 4.74606C19.6443 4.69661 19.5815 4.66669 19.5146 4.66258C19.4476 4.65848 19.3817 4.68052 19.3306 4.72406L6.43862 16.0891L1.67662 14.1121C1.483 14.0401 1.31535 13.9118 1.19523 13.7438C1.07512 13.5757 1.00804 13.3756 1.00262 13.1691C0.980402 12.9634 1.02526 12.7561 1.13051 12.5781C1.23576 12.4 1.39575 12.2607 1.58662 12.1811L22.3856 0.142062Z" fill="#0057D1"/>
<path d="M5.88905 30.7684C5.85496 30.4806 5.7167 30.2571 5.47428 30.098C5.23185 29.9389 4.9345 29.8594 4.58223 29.8594C4.32466 29.8594 4.09928 29.901 3.90609 29.9844C3.71481 30.0677 3.56519 30.1823 3.45723 30.3281C3.35117 30.4739 3.29814 30.6397 3.29814 30.8253C3.29814 30.9806 3.33507 31.1141 3.40894 31.2258C3.48469 31.3357 3.58128 31.4275 3.69871 31.5014C3.81613 31.5734 3.93924 31.633 4.06803 31.6804C4.19681 31.7258 4.31519 31.7628 4.42314 31.7912L5.01405 31.9503C5.16556 31.99 5.33413 32.045 5.51973 32.115C5.70723 32.1851 5.88621 32.2808 6.05666 32.402C6.22901 32.5213 6.37106 32.6747 6.4828 32.8622C6.59454 33.0497 6.65041 33.2798 6.65041 33.5525C6.65041 33.8669 6.56803 34.151 6.40325 34.4048C6.24038 34.6586 6.00174 34.8603 5.68735 35.0099C5.37485 35.1595 4.99511 35.2344 4.54814 35.2344C4.13147 35.2344 3.77068 35.1671 3.46575 35.0326C3.16272 34.8982 2.92409 34.7107 2.74984 34.4701C2.5775 34.2296 2.47996 33.9503 2.45723 33.6321H3.1845C3.20344 33.8518 3.27731 34.0336 3.40609 34.1775C3.53678 34.3196 3.70155 34.4256 3.90041 34.4957C4.10117 34.5639 4.31708 34.598 4.54814 34.598C4.81708 34.598 5.05856 34.5544 5.27257 34.4673C5.48659 34.3783 5.6561 34.2552 5.7811 34.098C5.9061 33.9389 5.9686 33.7533 5.9686 33.5412C5.9686 33.348 5.91462 33.1908 5.80666 33.0696C5.69871 32.9484 5.55666 32.8499 5.38053 32.7741C5.20439 32.6984 5.01405 32.6321 4.8095 32.5753L4.09359 32.3707C3.63905 32.24 3.2792 32.0535 3.01405 31.8111C2.7489 31.5686 2.61632 31.2514 2.61632 30.8594C2.61632 30.5336 2.70439 30.2495 2.88053 30.0071C3.05856 29.7628 3.29719 29.5734 3.59644 29.4389C3.89757 29.3025 4.23375 29.2344 4.60496 29.2344C4.97996 29.2344 5.31329 29.3016 5.60496 29.4361C5.89663 29.5686 6.12769 29.7505 6.29814 29.9815C6.47049 30.2126 6.5614 30.4749 6.57087 30.7684H5.88905Z" fill="#0057D1"/>
<path d="M7.80879 35.1321V29.3139H11.3202V29.9389H8.51334V31.9048H11.1383V32.5298H8.51334V34.5071H11.3656V35.1321H7.80879Z" fill="#0057D1"/>
<path d="M17.2037 29.3139V35.1321H16.5219L13.3514 30.5639H13.2946V35.1321H12.59V29.3139H13.2719L16.4537 33.8934H16.5105V29.3139H17.2037Z" fill="#0057D1"/>
<path d="M20.4089 35.1321H18.6135V29.3139H20.4885C21.0529 29.3139 21.5358 29.4304 21.9373 29.6633C22.3389 29.8944 22.6466 30.2268 22.8606 30.6605C23.0747 31.0923 23.1817 31.6094 23.1817 32.2116C23.1817 32.8177 23.0737 33.3395 22.8578 33.777C22.6419 34.2126 22.3275 34.5478 21.9146 34.7826C21.5017 35.0156 20.9998 35.1321 20.4089 35.1321ZM19.318 34.5071H20.3635C20.8445 34.5071 21.2432 34.4143 21.5595 34.2287C21.8758 34.0431 22.1116 33.7789 22.2669 33.4361C22.4222 33.0933 22.4998 32.6851 22.4998 32.2116C22.4998 31.7419 22.4231 31.3376 22.2697 30.9986C22.1163 30.6576 21.8872 30.3963 21.5822 30.2145C21.2773 30.0308 20.8976 29.9389 20.443 29.9389H19.318V34.5071Z" fill="#0057D1"/>
</svg>
