<svg width="25" height="22" viewBox="0 0 25 22" fill="none" xmlns="http://www.w3.org/2000/svg">
<path d="M1.876 1.06502C2.13882 1.00947 2.40769 0.987957 2.676 1.00102H18.576C18.9999 1.00405 19.4157 1.11821 19.7817 1.3321C20.1477 1.546 20.4513 1.85216 20.662 2.22002C17.418 4.10669 14.1743 5.99669 10.931 7.89002C10.8064 7.96712 10.6633 8.00937 10.5168 8.01236C10.3703 8.01535 10.2257 7.97897 10.098 7.90702L0.336 2.21202C0.501406 1.92632 0.723245 1.67729 0.988004 1.4801C1.25276 1.2829 1.5549 1.14167 1.876 1.06502Z" fill="#0057D1"/>
<path d="M0 3.88502C3.04667 5.66102 6.092 7.43969 9.136 9.22102C9.52572 9.47113 9.97688 9.60888 10.4398 9.61912C10.9028 9.62935 11.3596 9.51167 11.76 9.27902C14.8407 7.48302 17.9197 5.68502 20.997 3.88502C20.997 5.75568 20.997 7.62635 20.997 9.49702C19.6857 9.02859 18.2668 8.95044 16.912 9.27202C15.1832 9.68051 13.6636 10.7075 12.6399 12.1593C11.6162 13.6112 11.1592 15.3874 11.355 17.153C8.37833 17.153 5.40167 17.153 2.425 17.153C2.1029 17.1517 1.78425 17.0865 1.48753 16.9612C1.19082 16.8359 0.921927 16.6529 0.696454 16.4228C0.470981 16.1928 0.293409 15.9203 0.174029 15.6211C0.0546493 15.322 -0.00416325 15.0021 0.0010004 14.68L0 3.88502Z" fill="#0057D1"/>
<path d="M18.24 10.771C19.4471 10.6738 20.6525 10.979 21.668 11.639C22.4854 12.1819 23.1497 12.9257 23.597 13.799C24.1535 14.8757 24.3461 16.1037 24.146 17.299C24.0022 18.1732 23.6534 19.0009 23.128 19.7142C22.6026 20.4275 21.9157 21.0062 21.1236 21.4028C20.3314 21.7995 19.4565 22.0027 18.5706 21.996C17.6847 21.9892 16.813 21.7727 16.027 21.364C14.8501 20.7572 13.9189 19.7624 13.391 18.548C12.9494 17.5567 12.822 16.4539 13.026 15.388C13.2684 14.1531 13.9101 13.0321 14.8523 12.1978C15.7944 11.3635 16.9848 10.8622 18.24 10.771ZM18.434 12.32C18.2479 12.3539 18.0795 12.4518 17.958 12.5968C17.8365 12.7419 17.7697 12.9249 17.769 13.114C17.769 14.4607 17.769 15.8074 17.769 17.154C17.7764 17.363 17.8645 17.561 18.015 17.7062C18.1654 17.8514 18.3664 17.9326 18.5755 17.9326C18.7846 17.9326 18.9856 17.8514 19.136 17.7062C19.2864 17.561 19.3746 17.363 19.382 17.154C19.382 15.854 19.382 14.564 19.382 13.269C19.3961 13.103 19.3704 12.9361 19.307 12.782C19.2328 12.6195 19.107 12.4859 18.9491 12.4022C18.7913 12.3185 18.6102 12.2902 18.434 12.32ZM18.434 18.782C18.2807 18.809 18.1385 18.8798 18.0246 18.9858C17.9106 19.0918 17.8298 19.2286 17.7919 19.3795C17.754 19.5305 17.7606 19.6892 17.811 19.8365C17.8613 19.9838 17.9532 20.1133 18.0756 20.2095C18.1979 20.3057 18.3455 20.3644 18.5005 20.3785C18.6555 20.3926 18.8113 20.3616 18.9491 20.2891C19.0868 20.2166 19.2006 20.1058 19.2767 19.97C19.3528 19.8342 19.388 19.6793 19.378 19.524C19.3701 19.4113 19.3386 19.3014 19.2858 19.2015C19.2329 19.1016 19.1597 19.0138 19.0709 18.9438C18.9821 18.8739 18.8797 18.8233 18.7702 18.7952C18.6606 18.7672 18.5465 18.7623 18.435 18.781L18.434 18.782Z" fill="#FF6A6A"/>
</svg>
