<svg width="25" height="21" viewBox="0 0 25 21" fill="none" xmlns="http://www.w3.org/2000/svg">
<path d="M0.335196 1.20389C0.549786 0.833963 0.858988 0.527826 1.23104 0.316933C1.60309 0.10604 2.02457 -0.00200566 2.4522 0.00389119H18.4392C18.8591 0.00537285 19.2712 0.116968 19.6344 0.327538C19.9976 0.538108 20.2993 0.840285 20.5092 1.20389L10.9092 6.80389C10.78 6.89129 10.6296 6.94224 10.4738 6.95139C10.3181 6.96054 10.1628 6.92755 10.0242 6.85589L0.335196 1.20389Z" fill="#0057D1"/>
<path d="M0.00219552 2.86189C3.0582 4.64323 6.1132 6.42722 9.1672 8.21389C9.54819 8.4348 9.98079 8.55114 10.4212 8.55114C10.8616 8.55114 11.2942 8.4348 11.6752 8.21389C14.7312 6.43056 17.7865 4.64589 20.8412 2.85989C20.8412 4.93889 20.8412 7.01689 20.8412 9.09589C20.4901 8.69892 20.0462 8.39507 19.5491 8.21143C19.052 8.02778 18.5171 7.97008 17.9923 8.04346C17.4674 8.11684 16.9689 8.31902 16.5412 8.63196C16.1135 8.9449 15.77 9.35886 15.5412 9.83689C15.3742 10.1899 15.2092 10.5439 15.0412 10.8989C14.3852 10.9577 13.7389 11.0974 13.1172 11.3149C12.6918 11.507 12.3132 11.7892 12.0075 12.142C11.7018 12.4947 11.4762 12.9096 11.3465 13.3579C11.2167 13.8063 11.1858 14.2775 11.2558 14.739C11.3259 15.2004 11.4952 15.6412 11.7522 16.0309H2.4522C2.12914 16.0353 1.80848 15.975 1.50916 15.8533C1.20984 15.7317 0.937936 15.5513 0.709528 15.3228C0.48112 15.0943 0.300841 14.8224 0.17935 14.523C0.0578587 14.2236 -0.00237986 13.9029 0.00219552 13.5799C0.00219552 10.0072 0.00219552 6.43456 0.00219552 2.86189Z" fill="#0057D1"/>
<path d="M17.3082 10.0959C17.4929 9.91733 17.7173 9.7851 17.963 9.71006C18.2087 9.63502 18.4687 9.61929 18.7216 9.66418C18.9746 9.70907 19.2133 9.81329 19.4182 9.9683C19.623 10.1233 19.7882 10.3247 19.9002 10.5559C20.1832 11.1559 20.4582 11.7559 20.7422 12.3559C21.4022 12.4559 22.0632 12.5509 22.7212 12.6559C23.0743 12.7307 23.393 12.9197 23.628 13.1937C23.8629 13.4677 24.0011 13.8115 24.0212 14.1719C24.0325 14.426 23.9865 14.6794 23.8868 14.9134C23.7872 15.1473 23.6362 15.356 23.4452 15.5239C23.0065 15.9759 22.5675 16.4276 22.1282 16.8789C22.2402 17.5789 22.3572 18.2689 22.4682 18.9649C22.5095 19.2624 22.468 19.5654 22.3481 19.8408C22.2283 20.1162 22.0348 20.3531 21.7889 20.5256C21.5431 20.698 21.2544 20.7993 20.9546 20.8182C20.6549 20.8372 20.3558 20.773 20.0902 20.6329C19.5382 20.3279 18.9902 20.0189 18.4362 19.7139C17.8822 20.0199 17.3302 20.3289 16.7762 20.6329C16.513 20.7724 16.2167 20.8371 15.9193 20.8201C15.622 20.803 15.3349 20.7049 15.0894 20.5364C14.8438 20.3678 14.6492 20.1352 14.5264 19.8638C14.4037 19.5924 14.3576 19.2926 14.3932 18.9969C14.5012 18.2969 14.6262 17.5909 14.7322 16.8859C14.2532 16.3929 13.7792 15.8949 13.3012 15.4009C13.0958 15.1893 12.9513 14.9262 12.8831 14.6393C12.8149 14.3524 12.8254 14.0524 12.9136 13.771C13.0018 13.4896 13.1644 13.2372 13.3842 13.0406C13.604 12.844 13.8728 12.7104 14.1622 12.6539C14.8162 12.5539 15.4712 12.4539 16.1252 12.3539C16.3392 11.9029 16.5482 11.4539 16.7602 10.9969C16.8829 10.664 17.069 10.358 17.3082 10.0959Z" fill="#FFBB00"/>
</svg>
