<svg width="25" height="23" viewBox="0 0 25 23" fill="none" xmlns="http://www.w3.org/2000/svg">
<path d="M1.91772 1.05598C2.1673 1.00754 2.42173 0.988744 2.67572 0.999983H18.5757C18.9991 1.0026 19.4145 1.11605 19.7805 1.32904C20.1464 1.54202 20.4503 1.84712 20.6617 2.21398L10.9617 7.87298C10.7944 7.98215 10.5941 8.02922 10.3957 8.00598C10.1963 7.96213 10.0081 7.87771 9.84272 7.75798L0.335717 2.21398C0.504616 1.92175 0.732498 1.66787 1.00486 1.46851C1.27722 1.26914 1.5881 1.12865 1.91772 1.05598Z" fill="#0057D1"/>
<path d="M0.00271711 3.89199C3.06005 5.67199 6.11638 7.45432 9.17172 9.23899C9.55881 9.48002 10.0042 9.61108 10.4602 9.61813C10.9161 9.62518 11.3654 9.50794 11.7597 9.27899C14.8404 7.48499 17.9204 5.68932 20.9997 3.89199C20.9997 5.75865 20.9997 7.62532 20.9997 9.49198C19.6878 9.02317 18.2681 8.94501 16.9127 9.26699C15.1846 9.67608 13.6659 10.7032 12.6428 12.1548C11.6197 13.6063 11.163 15.3819 11.3587 17.147H2.52472C2.29265 17.1519 2.06096 17.126 1.83572 17.07C1.44307 16.9708 1.0814 16.7752 0.78349 16.5008C0.485582 16.2265 0.260866 15.8821 0.129718 15.499C0.0368343 15.2172 -0.00713495 14.9216 -0.000283145 14.625C0.00171686 11.049 0.00271711 7.47132 0.00271711 3.89199Z" fill="#0057D1"/>
<path d="M17.8977 10.732C19.2535 10.5667 20.6233 10.897 21.7548 11.662C22.8863 12.427 23.7031 13.5752 24.0549 14.8949C24.4066 16.2147 24.2696 17.6171 23.6689 18.8437C23.0683 20.0704 22.0446 21.0387 20.7864 21.5701C19.5282 22.1016 18.1204 22.1604 16.8223 21.7357C15.5241 21.3111 14.4232 20.4316 13.7223 19.2593C13.0215 18.0871 12.7679 16.701 13.0083 15.3565C13.2488 14.012 13.967 12.7997 15.0307 11.943C15.8547 11.2798 16.8478 10.8603 17.8977 10.732ZM20.3797 14.214C19.4857 15.3267 18.5931 16.4403 17.7017 17.555C17.3757 17.23 17.0517 16.902 16.7237 16.578C16.5715 16.4274 16.3658 16.3431 16.1517 16.3437C15.9375 16.3443 15.7323 16.4297 15.581 16.5812C15.4296 16.7327 15.3444 16.938 15.344 17.1521C15.3435 17.3663 15.4279 17.5719 15.5787 17.724C16.0727 18.224 16.5717 18.714 17.0647 19.213C17.1834 19.3562 17.3385 19.4646 17.5137 19.527C17.6788 19.578 17.8557 19.5766 18.0199 19.5228C18.1842 19.4691 18.3277 19.3657 18.4307 19.227C19.4974 17.889 20.5664 16.5517 21.6377 15.215C21.7703 15.0482 21.8312 14.8355 21.8071 14.6238C21.7829 14.412 21.6755 14.2186 21.5087 14.086C21.3419 13.9534 21.1292 13.8925 20.9175 13.9167C20.7058 13.9409 20.5123 14.0482 20.3797 14.215V14.214Z" fill="#34C472"/>
</svg>
