<svg width="20" height="19" viewBox="0 0 20 19" fill="none" xmlns="http://www.w3.org/2000/svg">
<path d="M8.64487 0.760005L0.181868 16.206C0.0608026 16.429 0.000260357 16.6799 0.00626648 16.9336C0.0122726 17.1873 0.0846176 17.435 0.216101 17.652C0.347585 17.8691 0.533621 18.0479 0.755694 18.1707C0.977767 18.2935 1.22813 18.356 1.48187 18.352H18.4089C18.6623 18.3551 18.9121 18.2921 19.1337 18.169C19.3552 18.046 19.5408 17.8673 19.6721 17.6505C19.8034 17.4337 19.8759 17.1865 19.8823 16.9331C19.8888 16.6798 19.829 16.4292 19.7089 16.206L11.2349 0.760005C11.106 0.529744 10.9181 0.338006 10.6905 0.204546C10.4628 0.0710869 10.2037 0.000732422 9.93987 0.000732422C9.676 0.000732422 9.41691 0.0710869 9.18928 0.204546C8.96166 0.338006 8.77373 0.529744 8.64487 0.760005ZM10.7809 7.169L10.6089 12.999H9.27087L9.09887 7.169H10.7809ZM9.93987 16.169C9.76733 16.1625 9.60051 16.1054 9.46018 16.0049C9.31985 15.9043 9.21221 15.7646 9.15067 15.6033C9.08913 15.442 9.0764 15.2661 9.11407 15.0976C9.15174 14.9291 9.23815 14.7754 9.36253 14.6557C9.48691 14.5359 9.64377 14.4554 9.81358 14.4242C9.98338 14.3929 10.1586 14.4123 10.3175 14.4799C10.4764 14.5475 10.6118 14.6604 10.707 14.8044C10.8022 14.9485 10.8529 15.1173 10.8529 15.29C10.8521 15.4082 10.8278 15.5251 10.7812 15.6338C10.7347 15.7425 10.6669 15.8409 10.5819 15.923C10.4968 16.0052 10.3962 16.0695 10.286 16.1123C10.1757 16.155 10.0581 16.1753 9.93987 16.172V16.169Z" fill="#FF9900"/>
</svg>
