<svg width="18" height="20" viewBox="0 0 18 20" fill="none" xmlns="http://www.w3.org/2000/svg">
<path d="M17.031 6.25H0.469C0.344613 6.25 0.225321 6.20059 0.137367 6.11263C0.0494124 6.02468 0 5.90539 0 5.781V4.375C0 3.87772 0.197544 3.40081 0.549175 3.04917C0.900806 2.69754 1.37772 2.5 1.875 2.5H3.75V0.469C3.75 0.40741 3.76213 0.346423 3.7857 0.289521C3.80927 0.23262 3.84382 0.180918 3.88737 0.137367C3.93092 0.0938162 3.98262 0.05927 4.03952 0.0357005C4.09642 0.012131 4.15741 0 4.219 0H5.781C5.90539 0 6.02468 0.0494124 6.11263 0.137367C6.20059 0.225321 6.25 0.344613 6.25 0.469V2.5H11.25V0.469C11.25 0.344613 11.2994 0.225321 11.3874 0.137367C11.4753 0.0494124 11.5946 0 11.719 0H13.282C13.4064 0 13.5257 0.0494124 13.6136 0.137367C13.7016 0.225321 13.751 0.344613 13.751 0.469V2.5H15.626C16.1231 2.50027 16.5998 2.69793 16.9512 3.04953C17.3026 3.40113 17.5 3.87789 17.5 4.375V5.781C17.5 5.90539 17.4506 6.02468 17.3626 6.11263C17.2747 6.20059 17.1554 6.25 17.031 6.25ZM0.469 7.5H17.031C17.1554 7.5 17.2747 7.54941 17.3626 7.63737C17.4506 7.72532 17.5 7.84461 17.5 7.969V18.125C17.5 18.6223 17.3025 19.0992 16.9508 19.4508C16.5992 19.8025 16.1223 20 15.625 20H1.875C1.37772 20 0.900806 19.8025 0.549175 19.4508C0.197544 19.0992 0 18.6223 0 18.125V7.969C0 7.84461 0.0494124 7.72532 0.137367 7.63737C0.225321 7.54941 0.344613 7.5 0.469 7.5ZM13.488 11.248L12.388 10.139C12.3001 10.0511 12.1808 10.0018 12.0565 10.0018C11.9322 10.0018 11.8129 10.0511 11.725 10.139L7.583 14.245L5.783 12.434C5.69506 12.3461 5.57582 12.2968 5.4515 12.2968C5.32718 12.2968 5.20794 12.3461 5.12 12.434L4.011 13.534C3.92313 13.6219 3.87377 13.7412 3.87377 13.8655C3.87377 13.9898 3.92313 14.1091 4.011 14.197L7.238 17.45C7.32594 17.5379 7.44518 17.5872 7.5695 17.5872C7.69382 17.5872 7.81306 17.5379 7.901 17.45L13.485 11.911C13.5729 11.8231 13.6222 11.7038 13.6222 11.5795C13.6222 11.4552 13.5729 11.3359 13.485 11.248H13.488Z" fill="#ABAFB5"/>
</svg>
