<svg width="20" height="20" viewBox="0 0 20 20" fill="none" xmlns="http://www.w3.org/2000/svg">
<path d="M9.94296 5.85491e-05C7.97681 5.85491e-05 6.05482 0.583088 4.42003 1.67542C2.78525 2.76775 1.51108 4.32032 0.758672 6.1368C0.00626075 7.95328 -0.190605 9.95209 0.192971 11.8805C0.576547 13.8088 1.52334 15.5801 2.91361 16.9704C4.30388 18.3607 6.0752 19.3075 8.00356 19.691C9.93193 20.0746 11.9307 19.8778 13.7472 19.1253C15.5637 18.3729 17.1163 17.0988 18.2086 15.464C19.3009 13.8292 19.884 11.9072 19.884 9.94106C19.8884 8.63433 19.6344 7.33962 19.1364 6.13149C18.6384 4.92337 17.9063 3.8257 16.9823 2.90169C16.0583 1.97769 14.9606 1.24561 13.7525 0.747622C12.5444 0.249631 11.2497 -0.00443379 9.94296 5.85491e-05ZM14.914 13.5201L13.522 14.9121L9.94296 11.3351L6.36396 14.9121L4.97196 13.5201L8.55396 9.94106L4.97196 6.36306L6.36396 4.97106L9.94296 8.55006L13.522 4.97106L14.914 6.36306L11.334 9.94106L14.914 13.5201Z" fill="#E91C24"/>
</svg>
