<svg width="33" height="33" viewBox="0 0 33 33" fill="none" xmlns="http://www.w3.org/2000/svg">
<path d="M24.0475 20.081C23.5571 21.7454 22.5279 23.1998 21.1215 24.216C19.724 25.2522 18.0261 25.8032 16.2865 25.785C14.5468 25.8032 12.8489 25.2522 11.4515 24.216C10.045 23.1998 9.01584 21.7454 8.52548 20.081C8.46946 19.9135 8.44802 19.7364 8.46246 19.5604C8.4769 19.3844 8.52692 19.2131 8.60948 19.057C8.68983 18.8956 8.80305 18.7528 8.94185 18.6378C9.08066 18.5227 9.24198 18.438 9.41548 18.389C9.58361 18.3326 9.76148 18.311 9.93823 18.3256C10.115 18.3402 10.2869 18.3907 10.4435 18.474C10.6049 18.5543 10.7477 18.6676 10.8627 18.8064C10.9777 18.9452 11.0625 19.1065 11.1115 19.28C11.4467 20.3854 12.1356 21.3502 13.0725 22.026C14.0002 22.7173 15.1286 23.0861 16.2855 23.076C17.4435 23.0853 18.5727 22.7151 19.5005 22.022C20.4373 21.3462 21.1263 20.3814 21.4615 19.276C21.5114 19.1013 21.5977 18.9392 21.7147 18.8003C21.8317 18.6614 21.9768 18.5488 22.1405 18.47C22.2991 18.3867 22.4728 18.3363 22.6513 18.3217C22.8298 18.3071 23.0095 18.3286 23.1795 18.385C23.3492 18.4364 23.5065 18.5223 23.6415 18.6372C23.7766 18.7522 23.8865 18.8937 23.9645 19.053C24.0474 19.2097 24.0976 19.3817 24.1118 19.5584C24.1261 19.7352 24.1042 19.913 24.0475 20.081ZM12.7765 8.93799C13.034 9.18616 13.2378 9.4845 13.3754 9.81457C13.513 10.1446 13.5814 10.4994 13.5765 10.857C13.5814 11.2146 13.513 11.5693 13.3754 11.8994C13.2378 12.2295 13.034 12.5278 12.7765 12.776C12.5283 13.0335 12.23 13.2373 11.8999 13.3749C11.5698 13.5125 11.215 13.5809 10.8575 13.576C10.4999 13.5809 10.1451 13.5125 9.81505 13.3749C9.48498 13.2373 9.18664 13.0335 8.93848 12.776C8.68191 12.5274 8.479 12.2289 8.34227 11.8988C8.20553 11.5688 8.13788 11.2142 8.14348 10.857C8.13853 10.4994 8.20697 10.1446 8.34457 9.81457C8.48217 9.4845 8.686 9.18616 8.94348 8.93799C9.19164 8.68052 9.48998 8.47668 9.82005 8.33908C10.1501 8.20148 10.5049 8.13304 10.8625 8.13799C11.2192 8.13372 11.573 8.2025 11.9022 8.34008C12.2314 8.47766 12.5289 8.68113 12.7765 8.93799ZM23.6335 8.93799C23.8909 9.18616 24.0948 9.4845 24.2324 9.81457C24.37 10.1446 24.4384 10.4994 24.4335 10.857C24.4384 11.2146 24.37 11.5693 24.2324 11.8994C24.0948 12.2295 23.8909 12.5278 23.6335 12.776C23.3853 13.0335 23.087 13.2373 22.7569 13.3749C22.4268 13.5125 22.072 13.5809 21.7145 13.576C21.3569 13.5809 21.0021 13.5125 20.6721 13.3749C20.342 13.2373 20.0436 13.0335 19.7955 12.776C19.5389 12.5274 19.336 12.2289 19.1993 11.8988C19.0625 11.5688 18.9949 11.2142 19.0005 10.857C18.9955 10.4994 19.064 10.1446 19.2016 9.81457C19.3392 9.4845 19.543 9.18616 19.8005 8.93799C20.0486 8.68052 20.347 8.47668 20.6771 8.33908C21.0071 8.20148 21.3619 8.13304 21.7195 8.13799C22.0762 8.13372 22.43 8.2025 22.7592 8.34008C23.0884 8.47766 23.3859 8.68113 23.6335 8.93799ZM28.7765 21.557C29.495 19.8932 29.863 18.0993 29.8575 16.287C29.863 14.4747 29.495 12.6808 28.7765 11.017C28.0967 9.40329 27.114 7.93481 25.8815 6.69099C24.6377 5.45849 23.1692 4.47577 21.5555 3.79599C19.8917 3.07749 18.0977 2.70951 16.2855 2.71499C14.4732 2.70951 12.6792 3.07749 11.0155 3.79599C9.40221 4.47558 7.93409 5.45796 6.69048 6.68999C5.45977 7.93424 4.47877 9.40269 3.80048 11.016C3.08198 12.6798 2.714 14.4737 2.71948 16.286C2.71386 18.0986 3.08185 19.8929 3.80048 21.557C4.47899 23.1696 5.45998 24.6373 6.69048 25.881C7.93429 27.1135 9.40278 28.0962 11.0165 28.776C12.6802 29.4945 14.4742 29.8625 16.2865 29.857C18.0987 29.8625 19.8927 29.4945 21.5565 28.776C23.1702 28.0962 24.6387 27.1135 25.8825 25.881C27.1144 24.6377 28.0968 23.1699 28.7765 21.557ZM30.3885 8.11299C31.8401 10.5913 32.5947 13.4159 32.5725 16.288C32.5933 19.1581 31.8384 21.9805 30.3875 24.457C28.9659 26.9191 26.9219 28.9642 24.4605 30.387C21.9822 31.8386 19.1575 32.5932 16.2855 32.571C13.4138 32.593 10.5895 31.8384 8.11148 30.387C5.65005 28.9642 3.60604 26.9191 2.18448 24.457C0.733565 21.9799 -0.0210299 19.1567 0.000477297 16.286C-0.021752 13.4139 0.732868 10.5893 2.18448 8.11099C3.60645 5.64994 5.65043 3.60597 8.11148 2.18399C10.5898 0.73238 13.4144 -0.0222403 16.2865 -1.09839e-05C19.1585 -0.0222403 21.9832 0.73238 24.4615 2.18399C26.9222 3.60611 28.9658 5.65007 30.3875 8.11099L30.3885 8.11299Z" fill="#ABAFB5"/>
</svg>
