<svg width="20" height="20" viewBox="0 0 20 20" fill="none" xmlns="http://www.w3.org/2000/svg">
<path d="M18.9495 0H0.9325C0.748387 0.000484164 0.568534 0.0554302 0.415584 0.15792C0.262635 0.260409 0.143427 0.405861 0.0729713 0.57596C0.00251547 0.746058 -0.0160389 0.933201 0.0196443 1.11382C0.0553276 1.29445 0.143653 1.46047 0.2735 1.591L7.4555 8.774V16.774C7.4557 16.9241 7.49218 17.072 7.56182 17.205C7.63146 17.3381 7.73222 17.4523 7.8555 17.538L10.9625 19.712C11.1023 19.8093 11.266 19.8665 11.436 19.8773C11.606 19.8882 11.7757 19.8523 11.9267 19.7736C12.0777 19.6949 12.2043 19.5764 12.2928 19.4308C12.3812 19.2853 12.4282 19.1183 12.4285 18.948V8.774L19.6105 1.591C19.7405 1.46035 19.8288 1.29414 19.8645 1.11333C19.9001 0.932525 19.8813 0.745218 19.8106 0.575038C19.7399 0.404858 19.6204 0.259428 19.4672 0.15709C19.3139 0.0547516 19.1338 9.01889e-05 18.9495 0Z" fill="#1E2327"/>
</svg>
