<svg width="22" height="22" viewBox="0 0 22 22" fill="none" xmlns="http://www.w3.org/2000/svg">
<path d="M19.62 0H2.18C1.60349 0.00211801 1.05136 0.232826 0.644738 0.641512C0.238114 1.0502 0.0102016 1.60349 0.0109999 2.18L0 21.8L4.36 17.44H19.62C20.1977 17.4384 20.7513 17.2082 21.1597 16.7997C21.5682 16.3913 21.7984 15.8377 21.8 15.26V2.18C21.7984 1.60231 21.5682 1.04874 21.1597 0.640256C20.7513 0.23177 20.1977 0.00158343 19.62 0ZM7.63 9.81H5.45V7.63H7.63V9.81ZM11.99 9.81H9.81V7.63H11.99V9.81ZM16.35 9.81H14.17V7.63H16.35V9.81Z" fill="#1E2327"/>
</svg>
