<svg width="18" height="20" viewBox="0 0 18 20" fill="none" xmlns="http://www.w3.org/2000/svg">
<path d="M0 18.125C0 18.6223 0.197544 19.0992 0.549175 19.4508C0.900806 19.8025 1.37772 20 1.875 20H15.625C16.1223 20 16.5992 19.8025 16.9508 19.4508C17.3025 19.0992 17.5 18.6223 17.5 18.125V7.5H0V18.125ZM2.5 10.625C2.50053 10.4594 2.56654 10.3007 2.68364 10.1836C2.80074 10.0665 2.9594 10.0005 3.125 10H6.875C7.0406 10.0005 7.19926 10.0665 7.31636 10.1836C7.43346 10.3007 7.49947 10.4594 7.5 10.625V14.375C7.49947 14.5406 7.43346 14.6993 7.31636 14.8164C7.19926 14.9335 7.0406 14.9995 6.875 15H3.125C2.9594 14.9995 2.80074 14.9335 2.68364 14.8164C2.56654 14.6993 2.50053 14.5406 2.5 14.375V10.625ZM15.625 2.5H13.75V0.625C13.7495 0.459402 13.6835 0.300737 13.5664 0.183641C13.4493 0.0665448 13.2906 0.000527386 13.125 0H11.875C11.7094 0.000527386 11.5507 0.0665448 11.4336 0.183641C11.3165 0.300737 11.2505 0.459402 11.25 0.625V2.5H6.25V0.625C6.24947 0.459402 6.18346 0.300737 6.06636 0.183641C5.94926 0.0665448 5.7906 0.000527386 5.625 0H4.375C4.2094 0.000527386 4.05074 0.0665448 3.93364 0.183641C3.81654 0.300737 3.75053 0.459402 3.75 0.625V2.5H1.875C1.37772 2.5 0.900806 2.69754 0.549175 3.04917C0.197544 3.40081 0 3.87772 0 4.375V6.25H17.5V4.375C17.5 3.87772 17.3025 3.40081 16.9508 3.04917C16.5992 2.69754 16.1223 2.5 15.625 2.5Z" fill="#ABAFB5"/>
</svg>
