<svg width="57" height="57" viewBox="0 0 57 57" fill="none" xmlns="http://www.w3.org/2000/svg">
<path d="M28.5 0C22.8632 0 17.3531 1.6715 12.6663 4.80312C7.97946 7.93474 4.32654 12.3858 2.16945 17.5935C0.0123487 22.8012 -0.552046 28.5316 0.547632 34.0601C1.64731 39.5885 4.36167 44.6667 8.34747 48.6525C12.3333 52.6383 17.4115 55.3527 22.9399 56.4524C28.4684 57.5521 34.1988 56.9877 39.4065 54.8306C44.6142 52.6735 49.0653 49.0206 52.1969 44.3338C55.3285 39.647 57 34.1368 57 28.5C57 20.9413 53.9973 13.6922 48.6526 8.34746C43.3078 3.00267 36.0587 0 28.5 0ZM28.5 11.032C30.5002 11.032 32.4554 11.6251 34.1185 12.7363C35.7816 13.8476 37.0778 15.427 37.8432 17.2749C38.6086 19.1228 38.8089 21.1562 38.4187 23.1179C38.0285 25.0797 37.0653 26.8816 35.651 28.296C34.2367 29.7103 32.4347 30.6735 30.473 31.0637C28.5112 31.4539 26.4778 31.2536 24.6299 30.4882C22.782 29.7228 21.2026 28.4266 20.0914 26.7635C18.9801 25.1004 18.387 23.1452 18.387 21.145C18.387 18.4629 19.4525 15.8906 21.349 13.994C23.2456 12.0975 25.8179 11.032 28.5 11.032ZM28.5 50.564C25.2923 50.5627 22.1236 49.8606 19.2155 48.507C16.3074 47.1533 13.7302 45.1806 11.664 42.727C12.7461 40.6592 14.3724 38.9263 16.3674 37.7152C18.3624 36.5041 20.6502 35.8609 22.984 35.855C23.2607 35.8566 23.5357 35.8991 23.8 35.981C25.3153 36.4906 26.9014 36.7582 28.5 36.774C30.0987 36.7592 31.685 36.4915 33.2 35.981C33.4643 35.8991 33.7393 35.8566 34.016 35.855C36.3498 35.8609 38.6377 36.5041 40.6326 37.7152C42.6276 38.9263 44.2539 40.6592 45.336 42.727C43.2698 45.1806 40.6926 47.1533 37.7845 48.507C34.8764 49.8606 31.7077 50.5627 28.5 50.564Z" fill="#ABAFB5"/>
</svg>
