<svg width="25" height="28" viewBox="0 0 25 28" fill="none" xmlns="http://www.w3.org/2000/svg">
<path d="M23.635 8.67301H0.651C0.478517 8.67301 0.313084 8.60456 0.191027 8.48269C0.0689692 8.36082 0.000264951 8.19549 0 8.02301V6.07101C0 5.38145 0.273928 4.72013 0.761522 4.23253C1.24912 3.74494 1.91044 3.47101 2.6 3.47101H5.2V0.651012C5.2 0.565184 5.21697 0.480203 5.24993 0.400958C5.2829 0.321713 5.33121 0.249769 5.39209 0.189266C5.45296 0.128762 5.5252 0.0808935 5.60464 0.0484139C5.68409 0.0159343 5.76917 -0.000515072 5.855 1.229e-05H8.023C8.19566 1.229e-05 8.36124 0.0685996 8.48333 0.190686C8.60541 0.312772 8.674 0.478356 8.674 0.651012V3.46901H15.613V0.651012C15.613 0.478529 15.6814 0.313096 15.8033 0.191039C15.9252 0.0689815 16.0905 0.000277241 16.263 1.229e-05H18.431C18.6037 1.229e-05 18.7692 0.0685996 18.8913 0.190686C19.0134 0.312772 19.082 0.478356 19.082 0.651012V3.46901H21.682C22.0234 3.46901 22.3615 3.53626 22.677 3.66693C22.9924 3.79759 23.279 3.9891 23.5205 4.23053C23.7619 4.47197 23.9534 4.75859 24.0841 5.07404C24.2147 5.38948 24.282 5.72758 24.282 6.06901V8.02301C24.2817 8.1948 24.2136 8.35953 24.0924 8.48129C23.9712 8.60304 23.8068 8.67196 23.635 8.67301ZM0.651 10.408H23.635C23.8077 10.408 23.9732 10.4766 24.0953 10.5987C24.2174 10.7208 24.286 10.8864 24.286 11.059V25.153C24.286 25.8426 24.0121 26.5039 23.5245 26.9915C23.0369 27.4791 22.3756 27.753 21.686 27.753H2.6C1.91044 27.753 1.24912 27.4791 0.761522 26.9915C0.273928 26.5039 0 25.8426 0 25.153V11.059C0 10.8864 0.0685873 10.7208 0.190673 10.5987C0.31276 10.4766 0.478344 10.408 0.651 10.408ZM18.719 15.608L17.191 14.07C17.1306 14.0095 17.0589 13.9616 16.98 13.9288C16.9011 13.8961 16.8165 13.8793 16.731 13.8793C16.6456 13.8793 16.5609 13.8961 16.482 13.9288C16.4031 13.9616 16.3314 14.0095 16.271 14.07L10.523 19.77L8.03 17.255C7.90794 17.1331 7.7425 17.0647 7.57 17.0647C7.3975 17.0647 7.23206 17.1331 7.11 17.255L5.571 18.779C5.51053 18.8394 5.46255 18.9111 5.42982 18.99C5.39709 19.069 5.38024 19.1536 5.38024 19.239C5.38024 19.3245 5.39709 19.4091 5.42982 19.488C5.46255 19.5669 5.51053 19.6386 5.571 19.699L10.049 24.213C10.1094 24.2735 10.1811 24.3215 10.26 24.3542C10.3389 24.3869 10.4235 24.4038 10.509 24.4038C10.5944 24.4038 10.6791 24.3869 10.758 24.3542C10.8369 24.3215 10.9086 24.2735 10.969 24.213L18.718 16.526C18.7785 16.4656 18.8264 16.3939 18.8592 16.315C18.8919 16.2361 18.9088 16.1515 18.9088 16.066C18.9088 15.9806 18.8919 15.896 18.8592 15.817C18.8264 15.7381 18.7785 15.6664 18.718 15.606L18.719 15.608Z" fill="#0057D1"/>
</svg>
