<svg width="25" height="28" viewBox="0 0 25 28" fill="none" xmlns="http://www.w3.org/2000/svg">
<path d="M3.0772e-06 25.153C3.0772e-06 25.8426 0.273931 26.5039 0.761525 26.9915C1.24912 27.4791 1.91044 27.753 2.6 27.753H21.683C22.0244 27.753 22.3625 27.6857 22.678 27.5551C22.9934 27.4244 23.28 27.2329 23.5215 26.9915C23.7629 26.75 23.9544 26.4634 24.0851 26.148C24.2158 25.8325 24.283 25.4944 24.283 25.153V10.408H3.0772e-06V25.153ZM3.469 14.745C3.46979 14.5153 3.56139 14.2952 3.72381 14.1328C3.88624 13.9704 4.1063 13.8788 4.336 13.878H9.536C9.7657 13.8788 9.98577 13.9704 10.1482 14.1328C10.3106 14.2952 10.4022 14.5153 10.403 14.745V19.945C10.4022 20.1747 10.3106 20.3948 10.1482 20.5572C9.98577 20.7196 9.7657 20.8112 9.536 20.812H4.336C4.1063 20.8112 3.88624 20.7196 3.72381 20.5572C3.56139 20.3948 3.46979 20.1747 3.469 19.945V14.745ZM21.683 3.469H19.083V0.867001C19.0822 0.636956 18.9903 0.416589 18.8275 0.254109C18.6646 0.091629 18.4441 0.000263635 18.214 5.81501e-07H16.479C16.2493 0.000791292 16.0292 0.0923896 15.8668 0.254813C15.7044 0.417235 15.6128 0.637301 15.612 0.867001V3.467H8.673V0.867001C8.67221 0.637301 8.58061 0.417235 8.41819 0.254813C8.25577 0.0923896 8.0357 0.000791292 7.806 5.81501e-07H6.071C5.84061 -0.000265607 5.61952 0.090866 5.45623 0.253403C5.29295 0.41594 5.2008 0.636609 5.2 0.867001V3.467H2.6C2.25823 3.467 1.91981 3.53438 1.6041 3.6653C1.28839 3.79621 1.00159 3.98808 0.76011 4.22994C0.518625 4.47179 0.327194 4.75889 0.196767 5.0748C0.0663403 5.3907 -0.000522728 5.72923 3.0772e-06 6.071V8.671H24.285V6.071C24.2853 5.72923 24.2181 5.39075 24.0875 5.07495C23.9568 4.75914 23.7652 4.47219 23.5235 4.23052C23.2818 3.98885 22.9949 3.7972 22.6791 3.66653C22.3633 3.53586 22.0248 3.46874 21.683 3.469Z" fill="#0057D1"/>
</svg>
