<svg width="25" height="28" viewBox="0 0 25 28" fill="none" xmlns="http://www.w3.org/2000/svg">
<path d="M23.631 8.672H0.65C0.477599 8.67147 0.312424 8.60269 0.190611 8.48069C0.0687984 8.35868 0.00026361 8.1934 0 8.021V6.07C0 5.38044 0.273928 4.71912 0.761522 4.23153C1.24912 3.74393 1.91044 3.47 2.6 3.47H5.2V0.650003C5.20026 0.564381 5.21739 0.479649 5.2504 0.400645C5.2834 0.321641 5.33165 0.249913 5.39238 0.189554C5.45311 0.129196 5.52513 0.0813907 5.60434 0.0488674C5.68354 0.0163442 5.76838 -0.00025997 5.854 3.07715e-06H8.021C8.19323 0.00053058 8.35825 0.0691819 8.48004 0.190966C8.60182 0.312751 8.67047 0.477775 8.671 0.650003V3.469H15.609V0.650003C15.6095 0.477602 15.6783 0.312427 15.8003 0.190614C15.9223 0.0688015 16.0876 0.000266687 16.26 3.07715e-06H18.428C18.6002 0.00053058 18.7653 0.0691819 18.887 0.190966C19.0088 0.312751 19.0775 0.477775 19.078 0.650003V3.469H21.678C22.3676 3.469 23.0289 3.74293 23.5165 4.23053C24.0041 4.71812 24.278 5.37944 24.278 6.069V8.021C24.2777 8.19289 24.2096 8.35772 24.0885 8.47963C23.9673 8.60155 23.8029 8.67068 23.631 8.672ZM0.65 10.406H23.63C23.8022 10.4065 23.9673 10.4752 24.089 10.597C24.2108 10.7188 24.2795 10.8838 24.28 11.056V25.148C24.28 25.4894 24.2127 25.8275 24.0821 26.143C23.9514 26.4584 23.7599 26.745 23.5185 26.9865C23.277 27.2279 22.9904 27.4194 22.675 27.5501C22.3595 27.6808 22.0214 27.748 21.68 27.748H2.6C1.91044 27.748 1.24912 27.4741 0.761522 26.9865C0.273928 26.4989 0 25.8376 0 25.148V11.057C0.00026361 10.8846 0.0687984 10.7193 0.190611 10.5973C0.312424 10.4753 0.477599 10.4065 0.65 10.406ZM17.777 17.994C17.7765 17.8218 17.7078 17.6568 17.586 17.535C17.4643 17.4132 17.2992 17.3445 17.127 17.344H13.875V14.092C13.8745 13.9198 13.8058 13.7548 13.684 13.633C13.5623 13.5112 13.3972 13.4425 13.225 13.442H11.057C10.8848 13.4425 10.7197 13.5112 10.598 13.633C10.4762 13.7548 10.4075 13.9198 10.407 14.092V17.344H7.154C6.98177 17.3445 6.81675 17.4132 6.69496 17.535C6.57318 17.6568 6.50453 17.8218 6.504 17.994V20.162C6.50453 20.3342 6.57318 20.4993 6.69496 20.621C6.81675 20.7428 6.98177 20.8115 7.154 20.812H10.406V24.064C10.4065 24.2362 10.4752 24.4013 10.597 24.523C10.7187 24.6448 10.8838 24.7135 11.056 24.714H13.224C13.3962 24.7135 13.5613 24.6448 13.683 24.523C13.8048 24.4013 13.8735 24.2362 13.874 24.064V20.813H17.126C17.2982 20.8125 17.4633 20.7438 17.585 20.622C17.7068 20.5003 17.7755 20.3352 17.776 20.163L17.777 17.994Z" fill="#0057D1"/>
</svg>
