<svg width="22" height="22" viewBox="0 0 22 22" fill="none" xmlns="http://www.w3.org/2000/svg">
<path d="M14.75 1C13.8319 1.00046 12.9251 1.20305 12.0941 1.5934C11.2631 1.98375 10.5283 2.55228 9.94173 3.25861C9.35519 3.96494 8.93136 4.79175 8.70033 5.68032C8.46931 6.56889 8.43676 7.49743 8.605 8.4L1 16V19.75C1 20.0815 1.1317 20.3995 1.36612 20.6339C1.60054 20.8683 1.91848 21 2.25 21H3.5V19.75H6V17.25H8.5V14.75H11L12.622 13.128C13.4799 13.4389 14.3955 13.5582 15.3044 13.4775C16.2133 13.3968 17.0936 13.1182 17.8833 12.661C18.673 12.2039 19.3531 11.5794 19.8758 10.8314C20.3984 10.0834 20.751 9.23008 20.9087 8.33131C21.0664 7.43254 21.0254 6.51014 20.7886 5.6289C20.5518 4.74766 20.125 3.92894 19.5381 3.23025C18.9511 2.53157 18.2183 1.96985 17.3912 1.58456C16.564 1.19927 15.6625 0.999744 14.75 1ZM16.622 7.252C16.2512 7.252 15.8886 7.14203 15.5803 6.93601C15.272 6.72998 15.0316 6.43714 14.8897 6.09453C14.7478 5.75192 14.7107 5.37492 14.783 5.01121C14.8554 4.64749 15.034 4.3134 15.2962 4.05118C15.5584 3.78895 15.8925 3.61038 16.2562 3.53803C16.6199 3.46568 16.9969 3.50281 17.3395 3.64473C17.6821 3.78664 17.975 4.02696 18.181 4.33531C18.387 4.64365 18.497 5.00616 18.497 5.377C18.497 5.62323 18.4485 5.86705 18.3543 6.09453C18.26 6.32202 18.1219 6.52872 17.9478 6.70283C17.7737 6.87694 17.567 7.01505 17.3395 7.10927C17.112 7.2035 16.8682 7.252 16.622 7.252Z" fill="#1E2327"/>
</svg>
