<svg width="22" height="22" viewBox="0 0 22 22" fill="none" xmlns="http://www.w3.org/2000/svg">
<path d="M11 0C8.82441 0 6.69767 0.645139 4.88873 1.85383C3.07979 3.06253 1.66989 4.78049 0.83733 6.79048C0.00476617 8.80047 -0.213071 11.0122 0.211367 13.146C0.635804 15.2798 1.68345 17.2398 3.22183 18.7782C4.76021 20.3166 6.72022 21.3642 8.85401 21.7886C10.9878 22.2131 13.1995 21.9952 15.2095 21.1627C17.2195 20.3301 18.9375 18.9202 20.1462 17.1113C21.3549 15.3023 22 13.1756 22 11C22 9.55546 21.7155 8.12506 21.1627 6.79048C20.6099 5.4559 19.7996 4.24327 18.7782 3.22183C17.7567 2.20038 16.5441 1.39013 15.2095 0.837325C13.8749 0.284523 12.4445 0 11 0ZM11 4.879C11.3687 4.879 11.7291 4.98839 12.0356 5.19332C12.342 5.39825 12.5808 5.68951 12.7217 6.03022C12.8625 6.37093 12.8991 6.74577 12.8268 7.1073C12.7545 7.46882 12.5766 7.80076 12.3156 8.06111C12.0545 8.32145 11.7221 8.49849 11.3604 8.56981C10.9987 8.64113 10.6239 8.60352 10.2836 8.46175C9.94326 8.31998 9.65265 8.08041 9.44854 7.77339C9.24444 7.46636 9.13602 7.10568 9.137 6.737C9.13833 6.24377 9.33519 5.77119 9.68443 5.42289C10.0337 5.07459 10.5068 4.879 11 4.879ZM13.484 16.145C13.484 16.2861 13.428 16.4214 13.3282 16.5212C13.2284 16.621 13.0931 16.677 12.952 16.677H9.052C8.91091 16.677 8.77559 16.621 8.67582 16.5212C8.57605 16.4214 8.52001 16.2861 8.52001 16.145V15.08C8.52001 14.9389 8.57605 14.8036 8.67582 14.7038C8.77559 14.604 8.91091 14.548 9.052 14.548H9.58401V11.709H9.04801C8.90691 11.709 8.77159 11.653 8.67182 11.5532C8.57206 11.4534 8.51601 11.3181 8.51601 11.177V10.112C8.51601 9.97091 8.57206 9.83559 8.67182 9.73582C8.77159 9.63605 8.90691 9.58 9.04801 9.58H11.887C12.0281 9.58 12.1634 9.63605 12.2632 9.73582C12.363 9.83559 12.419 9.97091 12.419 10.112V14.547H12.951C13.0921 14.547 13.2274 14.6031 13.3272 14.7028C13.427 14.8026 13.483 14.9379 13.483 15.079L13.484 16.145Z" fill="#ABAFB5"/>
</svg>
