<svg width="33" height="33" viewBox="0 0 33 33" fill="none" xmlns="http://www.w3.org/2000/svg">
<path fill-rule="evenodd" clip-rule="evenodd" d="M7.00164 9.70336C6.38257 10.6173 5.95474 11.6299 5.63737 12.6855L5.6372 12.6859C5.45401 12.6974 5.27156 12.7188 5.09061 12.7499C3.94445 13.0152 3.11304 13.7239 2.66953 14.787C1.76683 16.9507 1.9373 19.0755 3.17993 21.0687C3.69905 21.9017 4.42806 22.524 5.47071 22.5309C5.92702 22.5339 6.39384 22.4202 6.83922 22.2972C7.59773 22.0878 7.83296 21.6992 7.7192 20.9112C7.63819 20.3496 7.55267 19.7887 7.46717 19.228C7.34976 18.458 7.23237 17.6881 7.12667 16.9165C7.10629 16.7675 7.08322 16.6191 7.06017 16.4708C6.96921 15.8857 6.87844 15.3017 6.95357 14.6906C7.50762 10.1852 11.2424 6.56603 15.7225 6.22896C19.9532 5.91055 23.8121 8.30408 25.4142 12.2738C25.8879 13.4465 26.2239 14.661 26.035 15.9559C26.0116 16.1161 25.9891 16.2765 25.9665 16.4369C25.9057 16.8692 25.8449 17.3015 25.7686 17.7309C25.7402 17.8903 25.7151 18.0514 25.69 18.2127C25.6128 18.708 25.5352 19.2054 25.3622 19.6645C24.8138 21.1186 23.9035 22.3399 22.7174 23.3342C20.973 24.796 18.9811 25.6099 16.6893 25.6006C16.6053 25.6002 16.5212 25.5998 16.4372 25.5994C15.9385 25.5968 15.4398 25.5943 14.9414 25.6033C14.7953 25.6025 14.6504 25.6309 14.5152 25.6869C14.38 25.743 14.2572 25.8255 14.1537 25.9298C14.0503 26.034 13.9684 26.1579 13.9127 26.2944C13.857 26.4308 13.8286 26.577 13.8292 26.7246C13.8236 26.917 13.8253 27.1096 13.828 27.3022C13.8384 28.0334 14.3 28.4951 15.0317 28.4981C15.6557 28.5007 16.2796 28.5001 16.9036 28.4995C17.1697 28.4993 17.4358 28.499 17.7019 28.499C18.7881 28.499 19.1269 28.1797 19.1892 27.0994C19.1944 27.0778 19.203 27.0572 19.2146 27.0384C19.2269 27.0341 19.2394 27.0296 19.2519 27.025C19.2785 27.0153 19.3055 27.0054 19.3333 26.9978C22.0503 26.2618 24.2148 24.7314 25.8265 22.4065C25.938 22.2457 26.0486 22.2643 26.205 22.2965C26.3305 22.3223 26.4563 22.3526 26.5823 22.3828C26.9326 22.4669 27.2842 22.5514 27.6329 22.5429C28.4975 22.5219 29.1462 22.0093 29.6394 21.3367C30.9194 19.5912 31.1756 17.6331 30.6293 15.578C30.2105 14.0029 29.3449 12.8353 27.5531 12.712C27.4599 12.7056 27.3348 12.542 27.2974 12.4273C25.8281 7.91609 21.909 4.76575 17.2261 4.51949C12.8837 4.29105 9.46052 6.07361 7.00164 9.70336ZM13.5571 23.2555C14.4931 23.6373 15.492 23.8373 16.5014 23.845H16.5018C16.635 23.8332 16.7687 23.824 16.9024 23.8148C17.1912 23.7949 17.4801 23.775 17.7649 23.7291C22.2206 23.0097 25.1105 18.7546 24.1774 14.2851C23.0006 8.64943 16.7901 6.4122 12.3198 9.21383C8.23198 11.7754 7.43329 17.5358 10.6319 21.1906C10.6914 21.2484 10.7337 21.3219 10.754 21.4027C10.7743 21.4835 10.7717 21.5684 10.7467 21.6479C10.5941 22.2807 10.4622 22.9187 10.3319 23.5566C10.271 23.8544 10.3025 24.1418 10.5697 24.3355C10.8348 24.5275 11.0936 24.4202 11.3428 24.2805C11.491 24.1974 11.6393 24.1146 11.7877 24.0318C12.2227 23.789 12.6578 23.5463 13.0883 23.2955C13.1564 23.2486 13.2353 23.2202 13.3175 23.2132C13.3997 23.2062 13.4822 23.2207 13.5571 23.2555ZM21.2993 17.1547C21.0576 17.3187 20.7732 17.4066 20.4821 17.4074C20.0917 17.4073 19.7173 17.2512 19.4407 16.9731C19.1641 16.6951 19.0077 16.3178 19.0058 15.9237C19.0052 15.6297 19.091 15.3421 19.2523 15.0973C19.4135 14.8525 19.6431 14.6615 19.9118 14.5485C20.1806 14.4354 20.4765 14.4053 20.7622 14.462C21.0479 14.5187 21.3105 14.6597 21.5169 14.8671C21.7232 15.0745 21.864 15.339 21.9215 15.6272C21.979 15.9154 21.9506 16.2144 21.8398 16.4863C21.7291 16.7582 21.541 16.9908 21.2993 17.1547ZM13.3401 17.1539C13.0985 17.3182 12.8141 17.4064 12.5229 17.4074C12.1326 17.4085 11.7578 17.2532 11.4808 16.9756C11.2038 16.698 11.0472 16.3207 11.0454 15.9266C11.0442 15.6326 11.1294 15.3448 11.2903 15.0996C11.4511 14.8545 11.6804 14.663 11.949 14.5495C12.2176 14.4359 12.5136 14.4053 12.7995 14.4616C13.0853 14.5178 13.3482 14.6584 13.5549 14.8656C13.7616 15.0727 13.9028 15.3371 13.9607 15.6253C14.0186 15.9135 13.9905 16.2126 13.88 16.4847C13.7695 16.7568 13.5816 16.9897 13.3401 17.1539ZM17.733 15.1001C17.8941 15.3454 17.9793 15.6334 17.9781 15.9277C17.9789 16.1226 17.9415 16.3158 17.8678 16.496C17.7942 16.6762 17.6859 16.8399 17.5491 16.9775C17.4124 17.1152 17.2499 17.224 17.0712 17.2978C16.8925 17.3716 16.7011 17.4088 16.508 17.4073C16.2166 17.4077 15.9316 17.3206 15.6892 17.1573C15.4469 16.9939 15.258 16.7615 15.1465 16.4896C15.035 16.2178 15.006 15.9186 15.0631 15.63C15.1202 15.3415 15.2609 15.0765 15.4673 14.8688C15.6737 14.661 15.9365 14.5198 16.2225 14.4631C16.5085 14.4063 16.8047 14.4366 17.0736 14.55C17.3425 14.6634 17.572 14.8549 17.733 15.1001Z" fill="#0057D1"/>
</svg>
