<svg width="433" height="311" viewBox="0 0 433 311" fill="none" xmlns="http://www.w3.org/2000/svg">
<g clip-path="url(#clip0_1_226)">
<mask id="mask0_1_226" style="mask-type:luminance" maskUnits="userSpaceOnUse" x="0" y="0" width="433" height="311">
<path d="M432.068 0H0V310.482H432.068V0Z" fill="white"/>
</mask>
<g mask="url(#mask0_1_226)">
<mask id="mask1_1_226" style="mask-type:luminance" maskUnits="userSpaceOnUse" x="0" y="0" width="433" height="311">
<path d="M432.068 0H0V310.482H432.068V0Z" fill="white"/>
</mask>
<g mask="url(#mask1_1_226)">
<path d="M400.388 310.417C425.763 310.417 441.125 284.432 426.211 265.929C425.896 265.539 425.571 265.155 425.238 264.776C416.118 254.438 402.278 250.734 390.021 244.965C386.634 243.371 383.227 241.509 380.861 238.511C377.568 234.337 376.778 228.5 377.461 223.133C380.309 200.673 404.801 186.833 408.754 164.553C411.745 147.702 401.429 130.591 387.454 121.672C373.479 112.753 356.591 110.511 340.241 109.813C323.891 109.115 307.312 109.734 291.398 105.747C287.198 104.695 282.854 103.182 279.998 99.791C276.764 95.946 276.085 90.391 276.598 85.291C277.985 71.554 309.286 24.326 293.609 8.74002C290.653 5.69968 287.061 3.35105 283.09 1.86248C279.119 0.373909 274.868 -0.217716 270.642 0.130017C262.217 0.975017 254.348 4.84302 246.971 9.18902C231.381 18.372 177.007 79.248 157.442 88.449C138.214 97.491 116.13 94.832 95.057 94.398C73.984 93.964 50.563 97.1 36.79 113.815C31.912 119.734 28.544 127.706 30.182 135.334C31.205 140.094 34.055 144.211 37.292 147.719C44.685 155.731 54.326 161.257 61.319 169.654C68.312 178.051 72 191.382 65.426 200.141C62.874 203.541 59.164 205.725 55.526 207.774C35.2 219.236 12.4 231 3.51603 253.32C-1.01897 264.72 -0.931969 277.285 2.43403 289.115C6.00103 301.65 18.534 310.415 32.892 310.415L400.388 310.417Z" fill="#EAF0F5"/>
<g style="mix-blend-mode:multiply" opacity="0.41">
<mask id="mask2_1_226" style="mask-type:luminance" maskUnits="userSpaceOnUse" x="152" y="0" width="281" height="311">
<path d="M432.068 0.0140076H152.914V310.417H432.068V0.0140076Z" fill="white"/>
</mask>
<g mask="url(#mask2_1_226)">
<path d="M425.238 264.776C416.118 254.438 402.278 250.735 390.021 244.965C386.634 243.371 383.227 241.509 380.862 238.511C377.568 234.337 376.778 228.5 377.462 223.133C380.31 200.673 404.802 186.833 408.755 164.553C411.746 147.702 401.43 130.591 387.455 121.672C373.48 112.753 356.592 110.511 340.242 109.813C323.892 109.115 307.313 109.734 291.399 105.747C287.199 104.695 282.855 103.183 279.999 99.791C276.765 95.946 276.086 90.391 276.599 85.291C277.986 71.555 309.287 24.326 293.61 8.74001C288.409 3.44157 281.386 0.321665 273.967 0.0140076C283.873 2.70701 291.116 8.36901 285.843 19.971C273.665 46.761 160.659 135.899 240.056 144.671C319.453 153.443 187.936 224.071 247.849 228.939C293.549 232.654 199.797 286.194 152.914 310.421H400.388C425.763 310.421 441.125 284.437 426.211 265.933C425.896 265.543 425.571 265.159 425.238 264.78" fill="#A6CEF4"/>
</g>
</g>
<path d="M65.072 74.139C65.072 74.139 147.362 102.465 183.953 36.25C220.544 -29.965 -3.99398 49.537 65.072 74.139Z" fill="#EAF0F5"/>
<g style="mix-blend-mode:multiply" opacity="0.41">
<mask id="mask3_1_226" style="mask-type:luminance" maskUnits="userSpaceOnUse" x="66" y="10" width="123" height="71">
<path d="M188.014 10.509H66.114V80.163H188.014V10.509Z" fill="white"/>
</mask>
<g mask="url(#mask3_1_226)">
<path d="M166.177 10.509C172.008 14.38 173.164 21.362 167.069 32.391C141.181 79.237 92.426 78.761 66.114 74.474C75.714 77.461 149.77 98.106 183.953 36.25C194.063 17.95 184.235 10.788 166.177 10.509Z" fill="#A6CEF4"/>
</g>
</g>
<path d="M37.989 279.911C37.989 279.911 34.989 277.106 37.001 266.464C39.013 255.822 44.131 245.602 41.623 234.057C39.115 222.512 19.44 193.4 19.374 191.464C19.308 189.528 13.305 225.331 23.474 239.434C33.643 253.537 34.874 258.434 34.42 265.847C33.966 273.26 34.52 279.236 35.641 280.96L37.989 279.911Z" fill="#4286E8"/>
<path d="M36.127 258.507C34.944 263.254 34.227 275.158 36.12 278.007C36.297 278.273 36.551 278.122 36.866 277.63C36.29 275.662 35.912 272.214 37.001 266.464C39.017 255.822 44.131 245.602 41.622 234.057C39.113 222.512 19.44 193.4 19.374 191.465C19.374 191.465 22.339 215.719 32.323 232.413C39.471 244.365 37.31 253.76 36.123 258.507" fill="#0057D1"/>
<path d="M41.576 279.172C41.576 279.172 35.797 264.743 45.591 252.249C55.385 239.755 71.051 223.713 71.363 217.358C71.363 217.358 75.389 247.531 62.64 256.072C49.891 264.613 40.95 265.972 43.16 279.118L41.576 279.172Z" fill="#4286E8"/>
<path d="M55.337 250.007C41.121 260.354 39.959 272.273 42.165 277.8C42.2445 278.001 42.3694 278.18 42.5299 278.325C42.6903 278.469 42.8821 278.575 43.09 278.633C41.184 265.948 50.052 264.506 62.64 256.072C75.389 247.531 71.363 217.357 71.363 217.357C71.363 217.357 69.553 239.657 55.337 250.006" fill="#0057D1"/>
<path d="M32.071 279.5C33.199 274.283 33.492 268.919 32.939 263.61C31.952 255.361 23.339 250.721 15.284 242.01C11.141 237.528 9.916 213.821 12.484 211.619C12.484 211.619 -1.731 228.845 0.462003 241.459C2.655 254.073 25.844 262.268 27.99 268.359C29.2749 271.958 29.9407 275.749 29.959 279.57L32.071 279.5Z" fill="#4286E8"/>
<path d="M7.68 218.394C2.98 231.117 7.798 246.525 23.404 256.094C34.894 263.14 31.235 277.794 31.235 277.794L33.112 272.014C33.3119 269.213 33.2537 266.399 32.938 263.608C31.952 255.359 23.338 250.719 15.284 242.008C11.284 237.685 10.008 215.485 12.226 211.938C10.6 214.011 9.0826 216.167 7.68 218.397" fill="#0057D1"/>
<path d="M12.2261 211.934C12.3871 211.734 12.4841 211.613 12.4841 211.613C12.3828 211.707 12.2959 211.815 12.2261 211.934Z" fill="#49B4D6"/>
<path d="M44.55 278.542C44.55 278.542 47.8821 266.18 56.1221 264.516C64.3621 262.852 73.822 250.676 74.335 248.288C74.335 248.288 72.946 271.251 44.55 278.542Z" fill="#4286E8"/>
<path d="M55.6511 268.6C50.6021 271.125 48.5031 274.52 47.7571 277.6C73.0381 269.471 74.3351 248.283 74.3351 248.283C74.0319 249.148 73.599 249.963 73.0511 250.698C70.5721 255.042 64.5691 264.139 55.6511 268.598" fill="#0057D1"/>
<path d="M62.381 273.99H19.281L24.4 306.179C24.5882 307.361 25.1916 308.437 26.1018 309.213C27.012 309.99 28.1694 310.417 29.366 310.417H52.3C53.4965 310.417 54.6539 309.99 55.564 309.214C56.4741 308.437 57.0772 307.361 57.265 306.179L62.381 273.99Z" fill="#7CA5E2"/>
<path d="M61.535 279.316L62.382 273.99H19.282L20.129 279.316H61.535Z" fill="#6690CF"/>
<path d="M51.941 273.99L46.823 306.179C46.6352 307.361 46.0321 308.437 45.122 309.214C44.2119 309.99 43.0546 310.417 41.858 310.417H52.3C53.4967 310.417 54.6542 309.99 55.5644 309.214C56.4747 308.437 57.078 307.361 57.266 306.179L62.384 273.99H51.941Z" fill="#6690CF"/>
<path d="M232.051 237.117H223.081V310.482H232.051V237.117Z" fill="white"/>
<path d="M232.051 237.117H228.527V310.482H232.051V237.117Z" fill="#E8F2FC"/>
<path d="M253.333 304.474H204.3C203.503 304.474 202.739 304.79 202.176 305.354C201.613 305.917 201.296 306.681 201.296 307.478C201.296 308.275 201.613 309.039 202.176 309.602C202.739 310.166 203.503 310.482 204.3 310.482H253.334C254.131 310.482 254.895 310.166 255.458 309.602C256.022 309.039 256.338 308.275 256.338 307.478C256.338 306.681 256.022 305.917 255.458 305.354C254.895 304.79 254.131 304.474 253.334 304.474" fill="white"/>
<path d="M253.333 304.474H204.3C203.783 304.475 203.274 304.61 202.825 304.866C202.375 305.122 202 305.491 201.735 305.935H244.2C244.996 305.935 245.759 306.251 246.321 306.814C246.884 307.376 247.2 308.139 247.2 308.935C247.198 309.48 247.046 310.014 246.761 310.478H253.329C254.126 310.478 254.89 310.161 255.453 309.598C256.016 309.035 256.333 308.271 256.333 307.474C256.333 306.677 256.016 305.913 255.453 305.35C254.89 304.786 254.126 304.47 253.329 304.47" fill="#E8F2FC"/>
<path d="M232.051 237.117H223.081V243.649H232.051V237.117Z" fill="#E8F2FC"/>
<path d="M278.523 134.831C277.215 134.254 275.801 133.958 274.371 133.962H223.871C221.479 133.962 219.162 134.796 217.318 136.32C215.475 137.845 214.22 139.964 213.771 142.314L197.945 225.044C197.699 226.329 197.699 227.65 197.945 228.935C197.951 228.963 197.96 228.99 197.965 229.018H183.928C182.818 229.018 181.754 229.459 180.97 230.243C180.185 231.028 179.745 232.092 179.745 233.202C179.745 234.311 180.185 235.375 180.97 236.16C181.754 236.944 182.818 237.385 183.928 237.385H229.307V237.258H258.555C260.947 237.258 263.264 236.424 265.108 234.9C266.951 233.375 268.206 231.256 268.655 228.906L284.471 146.176C284.906 143.891 284.555 141.526 283.475 139.466C282.395 137.406 280.65 135.773 278.523 134.831Z" fill="#FF9933"/>
<path d="M284.468 146.177L268.657 228.909C268.208 231.258 266.953 233.377 265.11 234.9C263.266 236.424 260.949 237.257 258.557 237.255H229.306V237.387H183.932C183.383 237.387 182.839 237.279 182.331 237.069C181.823 236.858 181.362 236.55 180.974 236.162C180.585 235.773 180.277 235.312 180.067 234.804C179.856 234.297 179.748 233.752 179.748 233.203C179.748 232.654 179.856 232.109 180.067 231.602C180.277 231.094 180.585 230.633 180.974 230.244C181.362 229.856 181.823 229.548 182.331 229.337C182.839 229.127 183.383 229.019 183.932 229.019H197.97C197.958 228.991 197.95 228.961 197.948 228.931C198.069 228.942 198.213 228.942 198.334 228.942H248.827C252.118 228.944 255.307 227.798 257.844 225.701C260.381 223.605 262.108 220.69 262.727 217.458L278.527 134.836C280.653 135.777 282.398 137.41 283.478 139.469C284.558 141.529 284.908 143.893 284.473 146.177" fill="#E8F2FC"/>
<path d="M262.822 216.963L262.722 217.458C262.103 220.689 260.377 223.604 257.841 225.7C255.305 227.796 252.117 228.943 248.827 228.942H198.334C198.213 228.942 198.07 228.942 197.949 228.931C197.951 228.961 197.959 228.991 197.971 229.019H183.933C182.934 229.019 181.969 229.376 181.211 230.027C180.453 230.677 179.954 231.578 179.803 232.565V221.257C179.803 221.235 179.793 221.202 179.793 221.169C179.733 220.635 179.787 220.094 179.953 219.582C180.118 219.071 180.39 218.6 180.752 218.202C181.113 217.804 181.556 217.488 182.049 217.274C182.542 217.06 183.075 216.954 183.613 216.963H262.822Z" fill="white"/>
<path d="M278.523 134.831L262.723 217.454C262.103 220.685 260.377 223.6 257.841 225.697C255.306 227.793 252.119 228.942 248.829 228.944H198.329C198.203 228.944 198.068 228.944 197.942 228.935C197.696 227.65 197.696 226.329 197.942 225.044L213.768 142.314C214.217 139.964 215.472 137.845 217.315 136.32C219.159 134.796 221.476 133.962 223.868 133.962H274.368C275.798 133.958 277.212 134.254 278.52 134.831" fill="white"/>
<path d="M158.849 115H72.883C72.4125 115 71.9474 115.101 71.5195 115.297C71.0916 115.493 70.7108 115.778 70.403 116.134C70.0952 116.49 69.8676 116.908 69.7356 117.36C69.6036 117.812 69.5703 118.286 69.638 118.752L77 169.294C77.1134 170.074 77.5038 170.786 78.0997 171.302C78.6956 171.817 79.4571 172.101 80.245 172.101H166.21C166.681 172.101 167.146 172 167.574 171.804C168.002 171.608 168.383 171.323 168.69 170.967C168.998 170.611 169.226 170.193 169.358 169.741C169.49 169.29 169.523 168.815 169.455 168.349L162.094 117.8C161.979 117.022 161.588 116.31 160.993 115.796C160.397 115.282 159.636 115 158.849 115Z" fill="#1D54B5"/>
<path d="M146.824 115H72.883C72.4125 115 71.9474 115.101 71.5195 115.297C71.0916 115.493 70.7108 115.778 70.403 116.134C70.0952 116.49 69.8676 116.908 69.7356 117.36C69.6036 117.812 69.5703 118.286 69.638 118.752L72.892 141.092C81.2382 144.708 90.2421 146.56 99.338 146.53C123.991 146.53 138.517 133.43 146.824 115Z" fill="#3070CE"/>
<path d="M119.85 153.576H103.573C103.242 153.575 102.915 153.645 102.613 153.782C102.312 153.919 102.044 154.12 101.827 154.37C101.61 154.62 101.45 154.915 101.357 155.232C101.265 155.55 101.242 155.884 101.29 156.212L106.222 190.063C106.222 190.17 106.229 190.278 106.242 190.384L106.464 191.718C106.544 192.265 106.818 192.765 107.236 193.127C107.654 193.488 108.188 193.687 108.741 193.687H124.806L119.85 153.576Z" fill="#4286E8"/>
<path d="M143.618 191.321C143.609 190.708 143.359 190.123 142.923 189.693C142.486 189.263 141.898 189.021 141.285 189.021H128.97C128.092 189.022 127.243 188.704 126.581 188.127C125.919 187.55 125.489 186.753 125.37 185.883L121.76 159.515H123.9C124.231 159.516 124.558 159.445 124.859 159.308C125.16 159.17 125.428 158.97 125.644 158.72C125.861 158.469 126.021 158.175 126.113 157.858C126.205 157.54 126.228 157.206 126.18 156.879L125.961 155.543C125.882 154.995 125.608 154.494 125.189 154.132C124.77 153.77 124.235 153.571 123.681 153.572H119.41C118.951 153.572 118.497 153.671 118.079 153.86C117.661 154.05 117.289 154.327 116.987 154.673C116.685 155.018 116.46 155.424 116.327 155.864C116.195 156.303 116.158 156.766 116.219 157.221L120.719 190.766C120.827 191.574 121.225 192.315 121.839 192.852C122.452 193.389 123.24 193.685 124.055 193.685H141.279C141.589 193.686 141.895 193.625 142.181 193.506C142.467 193.387 142.726 193.213 142.944 192.993C143.161 192.773 143.333 192.512 143.449 192.225C143.565 191.938 143.622 191.63 143.618 191.321Z" fill="#1D54B5"/>
<path d="M134.769 164.8C134.769 165.105 134.679 165.403 134.509 165.656C134.34 165.91 134.099 166.107 133.818 166.224C133.536 166.34 133.226 166.371 132.927 166.311C132.628 166.252 132.354 166.105 132.138 165.89C131.923 165.674 131.776 165.4 131.717 165.101C131.657 164.802 131.688 164.492 131.804 164.21C131.921 163.929 132.118 163.688 132.372 163.519C132.625 163.349 132.923 163.259 133.228 163.259C133.637 163.259 134.029 163.421 134.318 163.71C134.607 163.999 134.769 164.391 134.769 164.8Z" fill="#4286E8"/>
<path d="M142.685 164.8C142.685 165.105 142.595 165.403 142.425 165.656C142.256 165.91 142.015 166.107 141.734 166.224C141.452 166.34 141.142 166.371 140.843 166.311C140.544 166.252 140.27 166.105 140.054 165.89C139.839 165.674 139.692 165.4 139.633 165.101C139.573 164.802 139.604 164.492 139.72 164.21C139.837 163.929 140.034 163.688 140.288 163.519C140.541 163.349 140.839 163.259 141.144 163.259C141.553 163.259 141.945 163.421 142.234 163.71C142.523 163.999 142.685 164.391 142.685 164.8Z" fill="#4286E8"/>
<path d="M149.62 164.8C149.62 165.105 149.53 165.403 149.36 165.656C149.191 165.91 148.95 166.107 148.669 166.224C148.387 166.34 148.077 166.371 147.778 166.311C147.48 166.252 147.205 166.105 146.989 165.89C146.774 165.674 146.627 165.4 146.568 165.101C146.508 164.802 146.539 164.492 146.655 164.21C146.772 163.929 146.97 163.688 147.223 163.519C147.476 163.349 147.774 163.259 148.079 163.259C148.488 163.259 148.88 163.421 149.169 163.71C149.458 163.999 149.62 164.391 149.62 164.8Z" fill="#4286E8"/>
<path d="M157.181 138.44L161.674 169.294C161.788 170.074 162.178 170.787 162.774 171.302C163.37 171.817 164.132 172.101 164.92 172.101H166.21C166.681 172.101 167.146 172 167.574 171.804C168.002 171.608 168.383 171.323 168.69 170.967C168.998 170.611 169.226 170.193 169.358 169.741C169.49 169.29 169.523 168.815 169.455 168.349L162.094 117.8C161.979 117.022 161.588 116.311 160.992 115.797C160.396 115.283 159.636 115 158.849 115H157.559C157.088 115 156.623 115.101 156.195 115.297C155.767 115.493 155.386 115.778 155.078 116.134C154.77 116.49 154.543 116.908 154.411 117.36C154.279 117.811 154.245 118.286 154.313 118.752L157.181 138.44Z" fill="#4286E8"/>
<path d="M124.657 120.515H94.636C94.4631 120.515 94.2923 120.552 94.1353 120.625C93.9784 120.697 93.8391 120.803 93.7272 120.935C93.6153 121.067 93.5334 121.222 93.4873 121.388C93.4412 121.555 93.4318 121.729 93.46 121.9L93.66 123.143C93.7054 123.422 93.8486 123.676 94.0641 123.859C94.2795 124.043 94.5532 124.143 94.836 124.143H124.856C125.029 124.143 125.199 124.106 125.356 124.033C125.513 123.961 125.652 123.855 125.763 123.724C125.875 123.592 125.957 123.438 126.004 123.272C126.05 123.106 126.06 122.931 126.032 122.761L125.832 121.518C125.787 121.239 125.643 120.985 125.428 120.802C125.212 120.618 124.939 120.518 124.656 120.518" fill="#4286E8"/>
<path d="M246.532 135.919C245.58 128.602 234.863 132.019 238.886 125.205C242.607 118.9 238.276 116.105 233.158 115.126C226.632 113.871 230.337 111.302 227.158 105.212C223.124 97.475 216.899 99.773 216.899 99.773C216.899 99.773 209.099 95.532 201.147 102.239C192.771 109.306 194.597 115.557 199.081 124.139C201.348 128.478 198.566 132.339 196.581 140.321C194.201 149.891 206.017 169.155 231.3 156.143C241.077 151.111 247.032 139.798 246.527 135.915" fill="#0057D1"/>
<path d="M211.608 137.919C211.608 137.919 207.749 138.332 203.821 142.261C201.18 144.901 188.254 170.63 188.254 170.63L176.324 134.094L167.589 134.766C167.589 134.766 177.425 193.526 185.076 193.636C192.312 193.736 215.295 155.699 215.295 155.699L211.608 137.919Z" fill="#A3C2EE"/>
<path d="M236.279 153.321L243.929 181.955L198.7 185.65L198.907 193.816C198.907 193.816 251.042 194.049 260.862 193.946C267.403 193.877 255.089 142.088 247.232 136.161C241.02 131.475 223.845 132.725 223.845 132.725L211.604 137.919C211.604 137.919 197.404 151.977 205.884 165.209C212.561 175.632 204.05 195.88 204.05 195.88L232.956 197.6L258.773 197.844L236.279 153.321Z" fill="#A3C2EE"/>
<path d="M207.421 184.938L209.041 184.638C210.591 177.868 210.868 168.617 207.335 164.171C200.335 155.361 207.542 142.571 211.59 137.94H211.583C210.935 138.594 197.62 152.29 205.888 165.207C209.839 171.375 208.873 179.407 207.421 184.934" fill="#7CA5E2"/>
<path d="M198.833 187.536C194.05 187.711 188.933 189.422 186.54 192.236C186.422 192.377 186.346 192.549 186.322 192.731C186.298 192.913 186.327 193.099 186.404 193.265C186.482 193.432 186.606 193.573 186.762 193.672C186.917 193.77 187.097 193.822 187.281 193.822H198.908L198.833 187.536Z" fill="#FFB19E"/>
<path d="M223.856 123.11V132.766L215.202 142.676L215.147 142.565L212.79 137.523V132.1C210.575 131.776 208.512 130.783 206.877 129.254C205.242 127.725 204.113 125.733 203.641 123.545L202.419 116.862C206.807 116.171 210.863 114.105 214.002 110.962C215.035 112.788 216.297 114.476 217.756 115.983C219.364 117.583 221.588 117.976 222.436 118.846C222.969 119.41 223.373 120.083 223.618 120.819C223.863 121.555 223.944 122.336 223.856 123.107" fill="#FFB19E"/>
<path d="M221.491 114.745C221.24 112.153 220.613 109.612 219.629 107.201C217.86 103.201 215.368 98.513 210.196 98.501C210.196 98.501 222.753 96.55 224.856 114.03L221.491 114.745Z" fill="#13448C"/>
<path d="M229 117.617C228.796 116.531 228.28 115.527 227.515 114.73C226.749 113.933 225.768 113.376 224.691 113.127C223.614 112.879 222.488 112.95 221.451 113.332C220.413 113.713 219.51 114.389 218.851 115.276C218.192 116.164 217.806 117.224 217.74 118.327C217.674 119.43 217.931 120.529 218.48 121.488C219.029 122.448 219.846 123.226 220.83 123.729C221.815 124.231 222.924 124.436 224.023 124.317C225.571 124.087 226.964 123.252 227.897 121.996C228.83 120.74 229.227 119.165 229 117.617Z" fill="#13448C"/>
<path d="M225.087 123.72C223.585 123.821 222.104 123.323 220.968 122.334C219.833 121.345 219.136 119.946 219.03 118.444C218.838 117.065 219.153 115.664 219.916 114.5C220.679 113.335 221.838 112.487 223.179 112.113C223.025 112.113 222.87 112.121 222.713 112.137C221.193 112.422 219.837 113.27 218.915 114.511C217.993 115.752 217.573 117.296 217.739 118.833C217.905 120.371 218.645 121.789 219.811 122.805C220.976 123.82 222.482 124.359 224.028 124.313C224.959 124.212 225.847 123.867 226.601 123.313C226.121 123.527 225.61 123.665 225.087 123.722" fill="#4286E8"/>
<path d="M226.829 117.774C226.731 117.247 226.481 116.761 226.11 116.374C225.739 115.987 225.264 115.717 224.742 115.596C224.219 115.475 223.674 115.509 223.171 115.694C222.668 115.879 222.229 116.206 221.91 116.636C221.59 117.067 221.403 117.58 221.371 118.115C221.339 118.65 221.463 119.183 221.73 119.648C221.996 120.113 222.392 120.491 222.869 120.734C223.346 120.978 223.884 121.077 224.417 121.019C225.167 120.908 225.842 120.503 226.294 119.895C226.746 119.287 226.938 118.524 226.829 117.774Z" fill="#4286E8"/>
<path d="M220.971 128.01C219.75 129.599 218.395 131.08 216.919 132.436C216.597 132.709 216.339 133.05 216.164 133.435C215.989 133.819 215.901 134.238 215.906 134.66L215.146 142.566L212.79 137.523V132.128L212.845 132.073C212.845 132.073 218.295 131.247 220.971 128.01Z" fill="#F48F7A"/>
<path d="M217.289 127.6L217.195 127.05C220.351 126.51 222.659 122.264 222.682 122.221L223.175 122.485C223.075 122.67 220.712 127.014 217.289 127.6Z" fill="#13448C"/>
<path d="M217.877 127.283C217.802 126.765 217.018 126.483 216.126 126.648C215.234 126.813 214.572 127.37 214.646 127.888C214.72 128.406 215.505 128.688 216.397 128.523C217.289 128.358 217.952 127.801 217.877 127.283Z" fill="#13448C"/>
<path d="M175.612 134.318C175.612 134.318 176.845 124.207 175.735 123.837C174.625 123.467 173.516 127.783 173.516 127.783C173.516 127.783 168.83 118.659 165.624 119.645C162.418 120.631 168.313 134.663 168.313 134.663L175.612 134.318Z" fill="#FFB19E"/>
<path d="M207.4 184.884L243.013 181.905C243.301 181.881 243.581 181.797 243.834 181.658C244.088 181.519 244.309 181.328 244.483 181.097C244.657 180.866 244.781 180.601 244.846 180.32C244.911 180.038 244.915 179.746 244.859 179.462C243.543 172.805 239.741 153.717 239.514 154.286C239.238 154.976 243.097 176.752 238.549 178.957C235.439 180.465 207.4 184.884 207.4 184.884Z" fill="#7CA5E2"/>
<path d="M231.623 290.228C231.348 290.294 231.107 290.458 230.945 290.689C228.679 293.842 226.668 294.589 222.692 295.122C222.431 295.163 222.179 295.247 221.946 295.371C222.251 294.913 223.576 292.743 222.663 290.788C222.035 289.449 221.276 288.176 220.396 286.988L226.204 283.53C226.204 283.53 229.766 287.64 231.623 290.23" fill="#FFB19E"/>
<path d="M235.923 297.614C234.896 298.598 218.323 307.659 214.383 309.932C213.902 310.209 212.927 310.717 212.749 310.191C212.469 309.37 219.637 295.539 222.692 295.125C226.665 294.587 228.678 293.844 230.941 290.688C231.049 290.534 231.193 290.409 231.36 290.324C231.527 290.238 231.713 290.194 231.9 290.196C232.088 290.199 232.273 290.247 232.438 290.336C232.603 290.425 232.744 290.554 232.848 290.71C234.439 293.117 236.748 296.824 235.923 297.61" fill="#13448C"/>
<path d="M204.283 195.835C204.283 195.835 164.06 214.48 162.993 227.411C162.045 238.911 221.325 291.524 221.325 291.524L230.697 287.664L198.254 235.369C198.254 235.369 232.623 218.428 241.022 198.032L204.283 195.835Z" fill="#13448C"/>
<path d="M178.647 224.02C175.918 229.27 173.914 236.602 172.516 243.247C177.07 248.653 182.816 254.74 188.751 260.726C184.366 243.4 180.473 226.026 181.818 223.536C184.383 218.79 201.428 206.172 213.473 199.896C213.473 199.896 184.973 211.843 178.647 224.02Z" fill="#09326D"/>
<path d="M207.925 301.026C207.653 300.949 207.363 300.974 207.108 301.097C203.59 302.741 201.472 302.409 197.742 300.934C197.495 300.841 197.233 300.791 196.969 300.786C197.459 300.536 199.675 299.286 199.833 297.138C199.94 295.662 199.9 294.179 199.713 292.711L206.471 292.531C206.471 292.531 207.571 297.857 207.925 301.026Z" fill="#FFB19E"/>
<path d="M208.07 310.063C206.693 310.42 187.13 310.203 182.583 310.263C182.453 310.265 182.324 310.238 182.206 310.184C182.087 310.13 181.982 310.051 181.898 309.952C181.814 309.852 181.754 309.736 181.72 309.61C181.687 309.484 181.682 309.353 181.705 309.225C181.862 308.372 194.873 299.805 197.741 300.936C201.471 302.407 203.59 302.742 207.106 301.094C207.275 301.013 207.462 300.974 207.65 300.981C207.837 300.988 208.021 301.04 208.183 301.134C208.346 301.228 208.484 301.36 208.584 301.518C208.685 301.677 208.745 301.858 208.76 302.045C208.972 304.922 209.176 309.777 208.07 310.063Z" fill="#13448C"/>
<path d="M258.637 197.757C258.637 197.757 262.006 220.535 241.59 226.301C230.624 229.27 219.485 231.563 208.237 233.165L209.472 297.816H198.736C198.736 297.816 179.028 228.685 181.816 223.538C184.982 217.693 210.06 199.938 220.774 196.738L258.637 197.757Z" fill="#0057D1"/>
<g style="mix-blend-mode:multiply" opacity="0.13">
<mask id="mask4_1_226" style="mask-type:luminance" maskUnits="userSpaceOnUse" x="199" y="197" width="60" height="101">
<path d="M258.844 197.417H199.899V297.817H258.844V197.417Z" fill="white"/>
</mask>
<g mask="url(#mask4_1_226)">
<path d="M208.236 233.166C219.484 231.564 230.623 229.271 241.589 226.302C262.006 220.536 258.637 197.758 258.637 197.758L246 197.417C242.2 205.584 229.852 225.803 199.9 227.984L206.681 297.817H209.472L208.236 233.166Z" fill="#0E367C"/>
</g>
</g>
<path d="M75.364 310.472L70.864 310.437L89.558 198.112L94.081 198.078L75.364 310.472Z" fill="white"/>
<path d="M260.5 310.436L265.275 310.473L242.1 196.83L237.355 196.867L260.5 310.436Z" fill="white"/>
<path d="M92.848 204.305L94.08 198.078L89.558 198.112L88.333 204.305H92.848Z" fill="#E4EDF7"/>
<path d="M243.622 204.305L242.102 196.83L237.357 196.866L238.868 204.305H243.622Z" fill="#E4EDF7"/>
<path d="M269.365 193.76H66.69C66.0845 193.76 65.5038 194.001 65.0757 194.429C64.6475 194.857 64.407 195.438 64.407 196.043C64.407 196.649 64.6475 197.229 65.0757 197.657C65.5038 198.085 66.0845 198.326 66.69 198.326H269.365C269.97 198.326 270.551 198.085 270.979 197.657C271.407 197.229 271.648 196.649 271.648 196.043C271.648 195.438 271.407 194.857 270.979 194.429C270.551 194.001 269.97 193.76 269.365 193.76Z" fill="white"/>
<path d="M189.284 94.189L183.943 63.264C183.842 62.5715 183.496 61.9384 182.966 61.4806C182.437 61.0228 181.761 60.7709 181.061 60.771L131.374 61.315C130.956 61.3151 130.543 61.4051 130.163 61.5789C129.783 61.7527 129.445 62.0063 129.172 62.3223C128.898 62.6384 128.696 63.0096 128.579 63.4107C128.462 63.8118 128.432 64.2335 128.492 64.647L133.178 91.782L135.548 107.145C135.576 107.324 135.657 107.491 135.781 107.624C135.905 107.756 136.067 107.848 136.244 107.887C136.421 107.926 136.606 107.91 136.774 107.842C136.943 107.774 137.087 107.657 137.187 107.506L143.511 97.99L186.402 97.521C186.82 97.5209 187.233 97.4309 187.613 97.2571C187.993 97.0833 188.331 96.8297 188.605 96.5136C188.878 96.1976 189.08 95.8264 189.197 95.4253C189.315 95.0242 189.344 94.6025 189.284 94.189Z" fill="#0057D1"/>
<path d="M171.615 70.366H142.82C142.703 70.3652 142.587 70.39 142.481 70.4386C142.374 70.4872 142.279 70.5584 142.203 70.6473C142.127 70.7363 142.071 70.8407 142.04 70.9534C142.008 71.0662 142.001 71.1845 142.02 71.3L142.156 72.139C142.186 72.3282 142.282 72.5004 142.428 72.6245C142.574 72.7485 142.76 72.8161 142.951 72.815H171.751C171.868 72.8151 171.983 72.7898 172.089 72.7409C172.194 72.6921 172.288 72.6208 172.364 72.5321C172.44 72.4434 172.495 72.3393 172.526 72.2271C172.558 72.1148 172.565 71.9971 172.546 71.882L172.409 71.042C172.379 70.853 172.283 70.6809 172.137 70.5569C171.992 70.4329 171.806 70.3651 171.615 70.366Z" fill="white"/>
<path d="M172.583 78.009H143.788C143.671 78.009 143.556 78.0343 143.45 78.0831C143.345 78.1319 143.251 78.2032 143.175 78.2919C143.099 78.3806 143.044 78.4847 143.013 78.597C142.981 78.7092 142.974 78.8269 142.993 78.942L143.129 79.782C143.159 79.9712 143.255 80.1434 143.401 80.2675C143.547 80.3915 143.733 80.4591 143.924 80.458H172.719C172.836 80.4588 172.952 80.434 173.058 80.3855C173.165 80.337 173.259 80.2658 173.335 80.177C173.412 80.0882 173.467 79.9839 173.499 79.8713C173.531 79.7587 173.538 79.6405 173.519 79.525L173.383 78.685C173.352 78.4955 173.254 78.3233 173.108 78.1994C172.961 78.0754 172.775 78.0079 172.583 78.009Z" fill="white"/>
<path d="M165.724 86.307L152.4 86.33C152.283 86.33 152.168 86.3553 152.062 86.4042C151.956 86.4531 151.862 86.5244 151.787 86.6132C151.711 86.7021 151.656 86.8063 151.624 86.9187C151.593 87.031 151.586 87.1489 151.605 87.264L151.741 88.104C151.772 88.2927 151.869 88.4642 152.014 88.588C152.16 88.7119 152.345 88.7799 152.536 88.78L165.861 88.757C165.978 88.7578 166.093 88.733 166.2 88.6843C166.306 88.6356 166.4 88.5642 166.476 88.4752C166.552 88.3862 166.607 88.2816 166.638 88.169C166.669 88.0563 166.675 87.9382 166.655 87.823L166.519 86.983C166.489 86.794 166.393 86.6219 166.247 86.4979C166.102 86.3739 165.916 86.3061 165.725 86.307" fill="white"/>
<path d="M391.124 45.182L397.735 16.093C397.84 15.8184 397.873 15.5216 397.832 15.2306C397.79 14.9396 397.675 14.664 397.498 14.4295C397.321 14.195 397.087 14.0095 396.818 13.8903C396.549 13.7711 396.255 13.7221 395.962 13.748L349.021 14.259C348.122 14.3245 347.264 14.6583 346.557 15.2172C345.85 15.7762 345.327 16.5345 345.056 17.394L339.256 42.918L335.7 57.369C335.512 58.133 336.421 58.352 337.106 57.708L346.634 48.758L387.155 48.316C388.054 48.2507 388.912 47.917 389.619 47.3582C390.326 46.7995 390.849 46.0413 391.12 45.182" fill="#0057D1"/>
<path d="M382.742 23.194H356.972C356.734 23.2112 356.506 23.3001 356.319 23.4492C356.133 23.5983 355.996 23.8004 355.926 24.029L355.748 24.781C355.723 24.8526 355.717 24.9291 355.73 25.0038C355.742 25.0784 355.773 25.1487 355.82 25.2083C355.866 25.268 355.927 25.315 355.996 25.3451C356.066 25.3753 356.142 25.3876 356.217 25.381H381.987C382.225 25.3639 382.453 25.275 382.639 25.1259C382.826 24.9768 382.963 24.7746 383.032 24.546L383.211 23.794C383.236 23.7224 383.242 23.6459 383.229 23.5712C383.217 23.4966 383.186 23.4263 383.139 23.3667C383.093 23.307 383.032 23.26 382.963 23.2299C382.893 23.1997 382.817 23.1874 382.742 23.194Z" fill="white"/>
<path d="M380.872 30.034H355.1C354.862 30.0512 354.634 30.1403 354.447 30.2896C354.261 30.4388 354.123 30.6412 354.054 30.87L353.875 31.621C353.849 31.6929 353.842 31.7701 353.854 31.8454C353.866 31.9208 353.897 31.9919 353.944 32.0523C353.991 32.1126 354.052 32.1603 354.122 32.1908C354.192 32.2213 354.268 32.2338 354.344 32.227H380.115C380.353 32.2098 380.581 32.1208 380.767 31.9717C380.954 31.8226 381.091 31.6205 381.16 31.392L381.339 30.639C381.364 30.5674 381.37 30.4909 381.358 30.4162C381.345 30.3416 381.314 30.2713 381.267 30.2117C381.221 30.152 381.16 30.105 381.091 30.0749C381.021 30.0447 380.945 30.0324 380.87 30.039" fill="white"/>
<path d="M371.763 37.46L359.829 37.481C359.591 37.4981 359.363 37.587 359.177 37.7361C358.99 37.8852 358.853 38.0874 358.784 38.316L358.605 39.068C358.58 39.1395 358.574 39.2161 358.587 39.2908C358.599 39.3654 358.63 39.4357 358.677 39.4953C358.723 39.5549 358.784 39.602 358.853 39.6321C358.923 39.6623 358.999 39.6746 359.074 39.668L371.008 39.647C371.246 39.6299 371.474 39.541 371.66 39.3919C371.847 39.2428 371.984 39.0406 372.053 38.812L372.232 38.06C372.257 37.9884 372.263 37.9119 372.25 37.8372C372.238 37.7626 372.207 37.6923 372.16 37.6327C372.114 37.573 372.053 37.526 371.984 37.4959C371.914 37.4657 371.838 37.4534 371.763 37.46Z" fill="white"/>
<path d="M123.722 93.965C123.864 94.0827 124.038 94.1541 124.221 94.1696C124.405 94.1852 124.589 94.144 124.748 94.0518C124.907 93.9596 125.035 93.8207 125.113 93.6539C125.191 93.4871 125.216 93.3004 125.184 93.119L118.814 56.392C118.729 55.8043 118.434 55.267 117.985 54.8785C117.536 54.4899 116.962 54.2761 116.368 54.276L74.2001 54.738C73.8454 54.7379 73.495 54.8141 73.1724 54.9615C72.8499 55.1089 72.5629 55.324 72.3309 55.5922C72.0989 55.8605 71.9274 56.1755 71.8281 56.5159C71.7287 56.8563 71.7038 57.2141 71.7551 57.565L76.2881 83.81C76.3738 84.3975 76.6682 84.9346 77.1173 85.3229C77.5664 85.7113 78.1403 85.925 78.7341 85.925L111.2 85.57C112.745 85.5519 114.246 86.0835 115.435 87.07L123.722 93.965Z" fill="#A3C2EE"/>
<path d="M110.592 65.3H81.8C81.6834 65.2999 81.5681 65.3252 81.4622 65.3741C81.3563 65.423 81.2622 65.4944 81.1866 65.5832C81.111 65.6721 81.0556 65.7763 81.0243 65.8886C80.9929 66.001 80.9863 66.1188 81.005 66.234L81.141 67.073C81.1707 67.2622 81.2673 67.4344 81.4131 67.5585C81.559 67.6825 81.7445 67.7501 81.936 67.749H110.731C110.848 67.7497 110.963 67.7249 111.069 67.6763C111.176 67.6277 111.27 67.5564 111.345 67.4675C111.421 67.3786 111.476 67.2742 111.507 67.1616C111.538 67.0491 111.544 66.9311 111.525 66.816L111.389 65.976C111.359 65.787 111.263 65.6149 111.117 65.4909C110.972 65.3668 110.786 65.2991 110.595 65.3" fill="white"/>
<path d="M111.56 72.943H82.7651C82.6485 72.943 82.5333 72.9682 82.4275 73.0171C82.3217 73.0659 82.2277 73.1372 82.1521 73.2259C82.0765 73.3146 82.0211 73.4187 81.9897 73.5309C81.9582 73.6432 81.9515 73.7609 81.9701 73.876L82.1061 74.716C82.1358 74.9052 82.2323 75.0774 82.3782 75.2015C82.5241 75.3255 82.7096 75.3931 82.9011 75.392H111.7C111.817 75.3927 111.932 75.3679 112.038 75.3193C112.145 75.2707 112.239 75.1994 112.314 75.1105C112.39 75.0216 112.445 74.9172 112.476 74.8046C112.507 74.6921 112.513 74.5741 112.494 74.459L112.358 73.619C112.328 73.43 112.232 73.2579 112.086 73.1339C111.941 73.0098 111.755 72.9421 111.564 72.943" fill="white"/>
<path d="M346.017 155.309L345.861 161.09L342.392 295.334H328.521L316.234 180.309C316.227 180.319 316.223 180.33 316.224 180.342L300.6 219.123L311.259 295.331L306.133 295.376L297.655 295.454C297.655 295.454 272.294 219.401 272.805 214.474C273.316 209.547 292.362 155.808 292.362 155.808L346.017 155.309Z" fill="#0057D1"/>
<path d="M347.362 72.219L321.3 68.637L320.69 68.548L308.229 68.604L308.118 68.626L293.241 72.35V156.044H347.362V72.219Z" fill="#A3C2EE"/>
<path d="M391.951 88.48C391.951 88.48 393.851 76.649 395.221 76.591C396.591 76.533 396.446 81.774 396.446 81.774C396.446 81.774 404.711 72.983 408.014 75.141C411.317 77.299 400.09 91.241 400.09 91.241L391.951 88.48Z" fill="#FFB19E"/>
<path d="M308.256 68.671L309.667 161.09H290.18L288.8 135.8L262.945 135.379C262.321 135.399 261.701 135.271 261.135 135.006C260.57 134.741 260.075 134.346 259.691 133.853C259.308 133.36 259.046 132.783 258.928 132.17C258.809 131.557 258.837 130.924 259.01 130.324L271.89 85.541C272.625 82.9701 274.024 80.6381 275.947 78.7797C277.869 76.9214 280.248 75.6022 282.842 74.955L308.119 68.631L308.256 68.671Z" fill="#4286E8"/>
<path d="M400.934 91.619L375.866 143.119C375.503 143.775 374.974 144.324 374.332 144.711C373.69 145.098 372.957 145.309 372.208 145.323C371.458 145.338 370.718 145.155 370.061 144.794C369.404 144.432 368.854 143.904 368.466 143.263L348.848 110.751L347.872 161.095H327.054L321.228 68.66L321.306 68.637L347.781 72.277C350.243 72.6506 352.577 73.6175 354.581 75.0944C356.586 76.5712 358.201 78.5136 359.288 80.754L372.681 108.373C372.758 108.529 372.873 108.663 373.015 108.764C373.157 108.865 373.322 108.928 373.495 108.949C373.668 108.97 373.843 108.948 374.005 108.884C374.167 108.82 374.311 108.717 374.423 108.584L391.459 88.232L400.934 91.619Z" fill="#4286E8"/>
<path d="M288.681 136.041H314.081L314.326 123.032L288.926 122.664L288.681 136.041Z" fill="#4286E8"/>
<path d="M314.244 132.448C321.409 132.186 329.073 129.623 332.659 125.409C332.837 125.198 332.95 124.941 332.986 124.667C333.022 124.394 332.98 124.116 332.863 123.866C332.746 123.616 332.561 123.405 332.328 123.257C332.095 123.109 331.825 123.031 331.549 123.032H314.132L314.244 132.448Z" fill="#FFB19E"/>
<g opacity="0.41">
<mask id="mask5_1_226" style="mask-type:luminance" maskUnits="userSpaceOnUse" x="288" y="136" width="17" height="26">
<path d="M304.36 136.042H288.817V161.091H304.36V136.042Z" fill="white"/>
</mask>
<g mask="url(#mask5_1_226)">
<path d="M304.336 136.573L304.36 136.156L288.818 136.042L290.181 161.091L294.818 140.336L304.336 136.573Z" fill="#13448C"/>
</g>
</g>
<g style="mix-blend-mode:multiply" opacity="0.32">
<mask id="mask6_1_226" style="mask-type:luminance" maskUnits="userSpaceOnUse" x="332" y="161" width="14" height="135">
<path d="M345.861 161.091H332.102V295.334H345.861V161.091Z" fill="white"/>
</mask>
<g mask="url(#mask6_1_226)">
<path d="M345.861 161.09L342.391 295.334H341.415L332.1 161.09H345.861Z" fill="#0E367C"/>
</g>
</g>
<g opacity="0.41">
<mask id="mask7_1_226" style="mask-type:luminance" maskUnits="userSpaceOnUse" x="280" y="104" width="35" height="21">
<path d="M314.299 104.167H280.059V124.89H314.299V104.167Z" fill="white"/>
</mask>
<g mask="url(#mask7_1_226)">
<path d="M314.3 122.94C314.3 122.94 279.84 125.435 280.06 124.781L286.042 104.167L286.131 104.478L286.719 118.858C286.797 120.811 312.503 122.43 314.3 122.94Z" fill="#13448C"/>
</g>
</g>
<g opacity="0.41">
<mask id="mask8_1_226" style="mask-type:luminance" maskUnits="userSpaceOnUse" x="348" y="91" width="53" height="55">
<path d="M400.934 91.581H348.846V145.322H400.934V91.581Z" fill="white"/>
</mask>
<g mask="url(#mask8_1_226)">
<path d="M375.865 143.115L400.933 91.615L400.817 91.577C398.157 91.564 374.832 140.332 372.378 141.56C369.584 142.96 348.846 110.743 348.846 110.743L368.464 143.255C368.852 143.896 369.402 144.425 370.059 144.786C370.716 145.148 371.456 145.331 372.206 145.316C372.955 145.302 373.688 145.09 374.33 144.703C374.972 144.316 375.501 143.767 375.864 143.111" fill="#13448C"/>
</g>
</g>
<path d="M299.234 295.309C296.243 301.435 282.027 304.531 282.027 304.531C281.734 305.201 281.635 305.94 281.741 306.664C281.847 307.388 282.154 308.067 282.627 308.625C284.251 310.912 299.21 309.511 301.085 309.095C302.306 308.769 303.406 308.096 304.251 307.157C304.832 307.805 305.491 308.378 306.213 308.863C306.913 309.201 310.736 308.436 310.736 308.436C311.636 305.999 310.736 296.695 310.48 295.211L299.234 295.309Z" fill="#13448C"/>
<path d="M341.091 295.309C344.082 301.435 358.298 304.531 358.298 304.531C358.591 305.201 358.69 305.94 358.584 306.664C358.478 307.388 358.171 308.067 357.698 308.625C356.076 310.912 341.116 309.511 339.241 309.095C338.02 308.769 336.92 308.096 336.075 307.157C335.495 307.805 334.836 308.378 334.113 308.863C333.413 309.201 329.59 308.436 329.59 308.436C328.69 305.999 329.59 296.695 329.846 295.211L341.091 295.309Z" fill="#13448C"/>
<g style="mix-blend-mode:multiply" opacity="0.32">
<mask id="mask9_1_226" style="mask-type:luminance" maskUnits="userSpaceOnUse" x="292" y="180" width="25" height="116">
<path d="M316.223 180.342H292.316V295.376H316.223V180.342Z" fill="white"/>
</mask>
<g mask="url(#mask9_1_226)">
<path d="M300.605 219.124L311.264 295.332L306.137 295.377C302.975 278.965 291.917 224.095 292.327 220.655C292.804 216.555 315.527 181.508 316.227 180.343L300.605 219.124Z" fill="#0E367C"/>
</g>
</g>
<path fill-rule="evenodd" clip-rule="evenodd" d="M321.25 68.718C319.362 70.226 314.796 73.441 314.796 73.441C314.796 73.441 310.152 70.258 308.232 68.73L308.216 57.7H321.25V68.718Z" fill="#FFB19E"/>
<path fill-rule="evenodd" clip-rule="evenodd" d="M321.255 57.7V62.314C319.424 63.8287 317.124 64.6618 314.748 64.6714C312.371 64.6811 310.065 63.8667 308.221 62.367V57.7H321.255Z" fill="#FFB19E"/>
<path fill-rule="evenodd" clip-rule="evenodd" d="M300.267 50.57H329.553L330.005 42.417C336.479 39.678 331.623 24.24 331.623 24.24C331.997 27.975 321.912 28.099 317.928 27.477C315.638 27.0807 313.281 27.4313 311.205 28.477C311.205 28.477 298.505 25.738 299.253 43.541C299.335 45.9152 299.675 48.2734 300.267 50.574" fill="#0057D1"/>
<path fill-rule="evenodd" clip-rule="evenodd" d="M326.456 42.4V49.749C326.457 51.3031 326.14 52.841 325.525 54.2683C324.91 55.6955 324.01 56.9821 322.88 58.049C322.507 58.379 322.133 58.738 321.746 59.097C319.841 60.8893 317.324 61.8872 314.709 61.8872C312.094 61.8872 309.577 60.8893 307.672 59.097L306.552 58.049C305.419 56.9886 304.516 55.7068 303.898 54.283C303.281 52.8593 302.962 51.3239 302.962 49.772V44.168C305.972 41.9093 308.681 39.275 311.023 36.329C311.023 36.329 316.185 41.284 326.456 42.404" fill="#FFB19E"/>
<path fill-rule="evenodd" clip-rule="evenodd" d="M321.255 59.528V62.313C319.424 63.8282 317.124 64.6617 314.748 64.6715C312.371 64.6814 310.065 63.8669 308.221 62.367V59.567C310.062 61.0705 312.369 61.8881 314.746 61.88C317.123 61.872 319.424 61.0389 321.255 59.523" fill="#F48F7A"/>
<path fill-rule="evenodd" clip-rule="evenodd" d="M305.879 51.432C306.399 50.7137 306.647 49.8335 306.577 48.9493C306.507 48.0651 306.124 47.2348 305.496 46.6076C304.869 45.9803 304.039 45.5972 303.155 45.5269C302.271 45.4566 301.39 45.7037 300.672 46.224C300.385 46.4041 300.143 46.6464 299.963 46.933C299.442 47.6513 299.194 48.5319 299.264 49.4165C299.334 50.3011 299.717 51.1317 300.345 51.7592C300.972 52.3866 301.803 52.7698 302.688 52.8398C303.572 52.9098 304.453 52.662 305.171 52.141C305.457 51.9609 305.699 51.7185 305.879 51.432Z" fill="#FFB19E"/>
<path fill-rule="evenodd" clip-rule="evenodd" d="M329.274 51.434C329.781 50.7384 330.03 49.8886 329.98 49.0295C329.93 48.1704 329.584 47.3552 329 46.723C328.417 46.0907 327.632 45.6805 326.779 45.5624C325.927 45.4442 325.06 45.6254 324.326 46.075C323.854 46.334 323.465 46.7226 323.206 47.195C322.756 47.9288 322.575 48.7957 322.693 49.6481C322.812 50.5005 323.222 51.2855 323.854 51.8693C324.486 52.4531 325.301 52.7994 326.161 52.8494C327.02 52.8993 327.869 52.6496 328.565 52.143C328.851 51.9627 329.094 51.7204 329.274 51.434Z" fill="#FFB19E"/>
<path d="M329.163 43.676H328.05V39.821C328.05 33.421 322.21 28.208 315.031 28.208H314.482C307.304 28.208 301.463 33.418 301.463 39.821V43.676H300.35V39.821C300.35 32.833 306.69 27.149 314.482 27.149H315.031C322.823 27.149 329.163 32.833 329.163 39.821V43.676Z" fill="#09326D"/>
<path d="M328.236 41.621C327.404 41.6234 326.607 41.955 326.018 42.5433C325.43 43.1317 325.098 43.929 325.096 44.761V50.361C325.096 50.7734 325.177 51.1817 325.335 51.5626C325.493 51.9436 325.724 52.2897 326.016 52.5813C326.307 52.8729 326.653 53.1042 327.034 53.262C327.415 53.4198 327.824 53.501 328.236 53.501C328.648 53.501 329.057 53.4198 329.438 53.262C329.819 53.1042 330.165 52.8729 330.456 52.5813C330.748 52.2897 330.979 51.9436 331.137 51.5626C331.295 51.1817 331.376 50.7734 331.376 50.361V44.761C331.374 43.929 331.042 43.1317 330.454 42.5433C329.865 41.955 329.068 41.6234 328.236 41.621Z" fill="#13448C"/>
<path d="M328.236 41.621C327.916 41.6256 327.598 41.6799 327.295 41.782C327.93 41.9814 328.485 42.3774 328.881 42.9128C329.276 43.4482 329.491 44.0954 329.495 44.761V50.361C329.491 51.0266 329.276 51.6738 328.881 52.2092C328.485 52.7446 327.93 53.1406 327.295 53.34C327.598 53.4421 327.916 53.4964 328.236 53.501C329.068 53.4986 329.865 53.167 330.454 52.5787C331.042 51.9903 331.374 51.1931 331.376 50.361V44.761C331.374 43.929 331.042 43.1317 330.454 42.5433C329.865 41.955 329.068 41.6234 328.236 41.621Z" fill="#09326D"/>
<path d="M301.275 41.621C300.443 41.6234 299.646 41.955 299.057 42.5433C298.469 43.1317 298.137 43.929 298.135 44.761V50.361C298.135 50.7734 298.216 51.1817 298.374 51.5626C298.532 51.9436 298.763 52.2897 299.055 52.5813C299.346 52.8729 299.692 53.1042 300.073 53.262C300.454 53.4198 300.863 53.501 301.275 53.501C301.687 53.501 302.096 53.4198 302.477 53.262C302.858 53.1042 303.204 52.8729 303.495 52.5813C303.787 52.2897 304.018 51.9436 304.176 51.5626C304.334 51.1817 304.415 50.7734 304.415 50.361V44.761C304.413 43.929 304.081 43.1317 303.493 42.5433C302.904 41.955 302.107 41.6234 301.275 41.621Z" fill="#13448C"/>
<path d="M301.275 41.621C300.955 41.6257 300.637 41.68 300.333 41.782C300.968 41.9813 301.523 42.3772 301.919 42.9127C302.314 43.4481 302.529 44.0954 302.533 44.761V50.361C302.529 51.0266 302.314 51.6739 301.919 52.2094C301.523 52.7448 300.968 53.1407 300.333 53.34C300.637 53.442 300.955 53.4963 301.275 53.501C302.107 53.4986 302.904 53.167 303.493 52.5787C304.081 51.9903 304.413 51.1931 304.415 50.361V44.761C304.413 43.929 304.081 43.1317 303.493 42.5433C302.904 41.955 302.107 41.6234 301.275 41.621Z" fill="#09326D"/>
<path d="M319.755 57.005L319.715 56.381C323.296 56.154 326.371 51.699 326.402 51.654L326.919 52.007C326.787 52.201 323.637 56.76 319.755 57.007" fill="#09326D"/>
<path d="M320.448 56.727C320.426 56.141 319.587 55.727 318.573 55.811C317.559 55.895 316.756 56.431 316.778 57.017C316.8 57.603 317.639 58.017 318.652 57.932C319.665 57.847 320.47 57.313 320.452 56.732" fill="#09326D"/>
<path d="M335.318 84.843H289.829C289.23 84.8572 288.641 84.9927 288.096 85.2415C287.551 85.4903 287.063 85.8471 286.66 86.2903C286.257 86.7335 285.949 87.2539 285.753 87.8199C285.558 88.3859 285.479 88.9857 285.522 89.583L286.715 118.861C286.769 120.002 287.256 121.079 288.076 121.872C288.897 122.666 289.99 123.117 291.132 123.132H334.016C335.158 123.116 336.25 122.666 337.071 121.872C337.891 121.078 338.378 120.001 338.432 118.861L339.625 89.583C339.668 88.9857 339.59 88.3858 339.394 87.8198C339.198 87.2537 338.89 86.7333 338.487 86.29C338.084 85.8468 337.596 85.49 337.051 85.2412C336.506 84.9925 335.917 84.857 335.318 84.843Z" fill="#13448C"/>
<path d="M335.318 84.843H289.829C289.236 84.8441 288.65 84.9708 288.109 85.2147C287.569 85.4586 287.086 85.8141 286.693 86.258C287.073 86.1392 287.468 86.0758 287.866 86.07H333.354C333.953 86.0842 334.542 86.2198 335.087 86.4686C335.632 86.7175 336.121 87.0744 336.523 87.5177C336.926 87.961 337.235 88.4815 337.43 89.0476C337.626 89.6137 337.704 90.2136 337.661 90.811L336.469 120.089C336.417 121.15 335.987 122.157 335.255 122.927C336.139 122.659 336.918 122.124 337.486 121.396C338.055 120.669 338.385 119.783 338.432 118.861L339.625 89.583C339.668 88.9857 339.59 88.3858 339.394 87.8198C339.199 87.2537 338.89 86.7333 338.487 86.29C338.085 85.8468 337.596 85.49 337.051 85.2412C336.506 84.9925 335.917 84.857 335.318 84.843Z" fill="#1D54B5"/>
<path d="M317.4 104.747C317.4 103.727 317.098 102.731 316.532 101.883C315.965 101.035 315.16 100.374 314.218 99.9836C313.276 99.5933 312.24 99.4911 311.24 99.69C310.24 99.8889 309.321 100.38 308.6 101.101C307.879 101.822 307.388 102.74 307.189 103.741C306.99 104.741 307.092 105.777 307.483 106.719C307.873 107.661 308.534 108.466 309.382 109.033C310.23 109.599 311.226 109.901 312.246 109.901C313.613 109.901 314.924 109.358 315.891 108.391C316.857 107.425 317.4 106.114 317.4 104.747Z" fill="#4286E8"/>
</g>
</g>
</g>
<defs>
<clipPath id="clip0_1_226">
<rect width="432.068" height="310.482" fill="white"/>
</clipPath>
</defs>
</svg>
