<svg width="19" height="19" viewBox="0 0 19 19" fill="none" xmlns="http://www.w3.org/2000/svg">
<path d="M9.5 0C7.62108 0 5.78435 0.557165 4.22209 1.60104C2.65982 2.64491 1.44218 4.12861 0.723149 5.86451C0.00411618 7.60041 -0.184015 9.51054 0.182544 11.3534C0.549104 13.1962 1.45389 14.8889 2.78249 16.2175C4.11109 17.5461 5.80383 18.4509 7.64665 18.8175C9.48947 19.184 11.3996 18.9959 13.1355 18.2769C14.8714 17.5578 16.3551 16.3402 17.399 14.7779C18.4428 13.2157 19 11.3789 19 9.5C19 8.25244 18.7543 7.0171 18.2769 5.86451C17.7994 4.71191 17.0997 3.66464 16.2175 2.78249C15.3354 1.90033 14.2881 1.20056 13.1355 0.723145C11.9829 0.245725 10.7476 0 9.5 0ZM14.25 10.45H10.45V14.25H8.55V10.45H4.75V8.55H8.55V4.75H10.45V8.55H14.25V10.45Z" fill="#34C472"/>
</svg>
