<svg width="27" height="22" viewBox="0 0 27 22" fill="none" xmlns="http://www.w3.org/2000/svg">
<path d="M23.6098 21.3009H3.50971C2.82404 21.2799 2.17457 20.9882 1.70356 20.4894C1.23256 19.9907 0.978711 19.3256 0.99702 18.6399L1.00971 2.66685C0.989764 1.98285 1.24185 1.31879 1.7104 0.820068C2.17895 0.321343 2.82579 0.0285812 3.50971 0.00585938H11.0458L13.5571 2.66685H23.6059C24.2916 2.68829 24.9409 2.98057 25.4116 3.47969C25.8822 3.97881 26.136 4.64409 26.1171 5.32985V18.6399C26.1357 19.3247 25.8823 19.989 25.4125 20.4876C24.9428 20.9863 24.2945 21.2786 23.6098 21.3009ZM17.33 13.3148C15.577 13.3148 12.3051 14.2289 12.3051 15.9759V17.3079H22.352V15.9759C22.353 14.2249 19.083 13.3109 17.33 13.3109V13.3148ZM5.06001 9.98485V11.7139H7.50679V14.3079H9.13911V11.7139H11.5859V9.98485H9.13911V7.39085H7.50679V9.98485H5.06001ZM17.33 6.65985C16.6444 6.68077 15.9949 6.97255 15.5239 7.4713C15.0529 7.97004 14.7985 8.63511 14.8168 9.32086C14.7983 10.0069 15.0524 10.6723 15.5234 11.1714C15.9944 11.6705 16.6441 11.9627 17.33 11.9839C18.0157 11.9624 18.6651 11.6701 19.1357 11.171C19.6063 10.6719 19.8596 10.0066 19.8408 9.32086C19.8604 8.63469 19.6074 7.96873 19.1367 7.46912C18.6659 6.9695 18.0162 6.67702 17.33 6.65585V6.65985Z" fill="#34B5C4"/>
</svg>
