<svg width="28" height="22" viewBox="0 0 28 22" fill="none" xmlns="http://www.w3.org/2000/svg">
<path d="M24.5079 21.3009H3.608C2.90904 21.2935 2.24169 21.0092 1.75204 20.5103C1.26239 20.0115 0.990579 19.3388 0.996179 18.6399L1.01132 2.66685C1.00384 1.96938 1.27336 1.29745 1.76083 0.798553C2.24829 0.299654 2.91347 0.0145614 3.61092 0.00585938H11.4483L14.0601 2.66685H24.5069C25.2061 2.67451 25.8742 2.95916 26.3639 3.45837C26.8535 3.95759 27.1251 4.63061 27.1192 5.32985V18.6399C27.1248 19.3387 26.8528 20.0112 26.3634 20.51C25.8739 21.0088 25.2067 21.2932 24.5079 21.3009ZM17.9781 13.3148C16.1551 13.3148 12.754 14.2289 12.754 15.9759V17.3079H23.2042V15.9759C23.2002 14.2249 19.8001 13.3109 17.9781 13.3109V13.3148ZM17.9781 6.65985C17.2792 6.66724 16.6118 6.95154 16.1222 7.45038C15.6325 7.94922 15.3607 8.62189 15.3663 9.32086C15.3604 10.0201 15.632 10.6931 16.1217 11.1923C16.6113 11.6916 17.2789 11.9762 17.9781 11.9839C18.6773 11.9762 19.3449 11.6916 19.8346 11.1923C20.3242 10.6931 20.5958 10.0201 20.5899 9.32086C20.5966 8.6212 20.3253 7.94749 19.8355 7.44778C19.3458 6.94808 18.6778 6.66324 17.9781 6.65585V6.65985ZM5.22225 9.98485V11.7139H12.0089V9.98485H5.22225Z" fill="#FF9900"/>
</svg>
