<svg width="19" height="19" viewBox="0 0 19 19" fill="none" xmlns="http://www.w3.org/2000/svg">
<path d="M9.219 0C7.39566 0 5.61326 0.540685 4.0972 1.55368C2.58115 2.56668 1.39952 4.00649 0.701759 5.69104C0.00399446 7.37559 -0.178573 9.22923 0.177145 11.0175C0.532862 12.8058 1.41089 14.4485 2.70019 15.7378C3.98949 17.0271 5.63216 17.9051 7.42047 18.2609C9.20878 18.6166 11.0624 18.434 12.747 17.7362C14.4315 17.0385 15.8713 15.8569 16.8843 14.3408C17.8973 12.8247 18.438 11.0423 18.438 9.219C18.438 6.77397 17.4667 4.42908 15.7378 2.70018C14.0089 0.971285 11.664 0 9.219 0ZM13.961 10.15H4.477V8.288H13.962L13.961 10.15Z" fill="#FF6A6A"/>
</svg>
