<svg width="23" height="17" viewBox="0 0 23 17" fill="none" xmlns="http://www.w3.org/2000/svg">
<path fill-rule="evenodd" clip-rule="evenodd" d="M6.61546 0.341459C6.80534 0.124466 7.07965 0 7.368 0H19.193C19.9406 0 20.6577 0.297001 21.1863 0.825666C21.715 1.35433 22.012 2.07136 22.012 2.819V13.735C22.012 14.4826 21.715 15.1997 21.1863 15.7283C20.6577 16.257 19.9406 16.554 19.193 16.554H7.368C7.07965 16.554 6.80534 16.4295 6.61546 16.2125L0.247455 8.93554C-0.0824851 8.5585 -0.0824851 7.9955 0.247455 7.61846L6.61546 0.341459ZM7.82174 2L2.32882 8.277L7.82174 14.554H19.193C19.4102 14.554 19.6185 14.4677 19.7721 14.3141C19.9257 14.1605 20.012 13.9522 20.012 13.735V2.819C20.012 2.60179 19.9257 2.39347 19.7721 2.23988C19.6185 2.08629 19.4102 2 19.193 2H7.82174ZM10.2989 4.84089C10.6894 4.45037 11.3226 4.45037 11.7131 4.84089L13.735 6.86279L15.7569 4.84089C16.1474 4.45037 16.7806 4.45037 17.1711 4.84089C17.5616 5.23142 17.5616 5.86458 17.1711 6.25511L15.1492 8.277L17.1711 10.2989C17.5616 10.6894 17.5616 11.3226 17.1711 11.7131C16.7806 12.1036 16.1474 12.1036 15.7569 11.7131L13.735 9.69121L11.7131 11.7131C11.3226 12.1036 10.6894 12.1036 10.2989 11.7131C9.90837 11.3226 9.90837 10.6894 10.2989 10.2989L12.3208 8.277L10.2989 6.25511C9.90837 5.86458 9.90837 5.23142 10.2989 4.84089Z" fill="#787879"/>
</svg>
