<svg width="23" height="23" viewBox="0 0 23 23" fill="none" xmlns="http://www.w3.org/2000/svg">
<path d="M8.32895 15.96C8.33081 14.4002 8.80966 12.8783 9.70124 11.5985C10.5928 10.3187 11.8545 9.3422 13.317 8.79998C13.6802 7.99706 13.8719 7.1272 13.88 6.24598C13.88 2.79698 13.88 0.000976562 9.71695 0.000976562C5.55395 0.000976562 5.55395 2.80098 5.55395 6.24598C5.55595 7.26749 5.81032 8.27269 6.29444 9.1722C6.77857 10.0717 7.47745 10.8377 8.32895 11.402V12.546C3.62095 12.931 0.00195312 15.246 0.00195312 18.041H8.61695C8.42484 17.3637 8.32758 16.663 8.32795 15.959L8.32895 15.96ZM15.962 9.71498C14.7268 9.71498 13.5194 10.0812 12.4924 10.7674C11.4654 11.4537 10.665 12.429 10.1923 13.5701C9.71966 14.7112 9.59598 15.9669 9.83695 17.1783C10.0779 18.3897 10.6727 19.5025 11.5461 20.3759C12.4194 21.2492 13.5322 21.844 14.7436 22.085C15.955 22.3259 17.2107 22.2023 18.3518 21.7296C19.4929 21.2569 20.4683 20.4565 21.1545 19.4295C21.8407 18.4025 22.207 17.1951 22.207 15.96C22.207 15.1396 22.0453 14.3273 21.7313 13.5694C21.4173 12.8116 20.957 12.123 20.3768 11.543C19.7966 10.9631 19.1078 10.5032 18.3497 10.1895C17.5917 9.87582 16.7793 9.71458 15.959 9.71498H15.962ZM19.429 16.654H12.49V15.266H19.429V16.654Z" fill="#787879"/>
</svg>
