<svg width="16" height="14" viewBox="0 0 16 14" fill="none" xmlns="http://www.w3.org/2000/svg">
<path d="M9.5 3.25H11.2529C11.4364 3.25 11.5281 3.25 11.6144 3.27072C11.691 3.2891 11.7641 3.3194 11.8312 3.36052C11.9069 3.4069 11.9718 3.47176 12.1015 3.60147L15.1485 6.64853C15.2782 6.77824 15.3431 6.8431 15.3895 6.91879C15.4306 6.98589 15.4609 7.05905 15.4793 7.13558C15.5 7.22189 15.5 7.31361 15.5 7.49706V9.625C15.5 9.97446 15.5 10.1492 15.4429 10.287C15.3668 10.4708 15.2208 10.6168 15.037 10.6929C14.8992 10.75 14.7245 10.75 14.375 10.75M10.625 10.75H9.5M9.5 10.75V3.4C9.5 2.55992 9.5 2.13988 9.33651 1.81901C9.1927 1.53677 8.96323 1.3073 8.68099 1.16349C8.36012 1 7.94008 1 7.1 1H2.9C2.05992 1 1.63988 1 1.31901 1.16349C1.03677 1.3073 0.8073 1.53677 0.66349 1.81901C0.5 2.13988 0.5 2.55992 0.5 3.4V9.25C0.5 10.0784 1.17157 10.75 2 10.75M9.5 10.75H6.5M6.5 10.75C6.5 11.9926 5.49264 13 4.25 13C3.00736 13 2 11.9926 2 10.75M6.5 10.75C6.5 9.50736 5.49264 8.5 4.25 8.5C3.00736 8.5 2 9.50736 2 10.75M14.375 11.125C14.375 12.1605 13.5355 13 12.5 13C11.4645 13 10.625 12.1605 10.625 11.125C10.625 10.0895 11.4645 9.25 12.5 9.25C13.5355 9.25 14.375 10.0895 14.375 11.125Z" stroke="#376878" stroke-linecap="round" stroke-linejoin="round"/>
</svg>
