<?xml version="1.0" encoding="utf-8"?>
<!-- Generator: Adobe Illustrator 27.5.0, SVG Export Plug-In . SVG Version: 6.00 Build 0)  -->
<svg version="1.1" id="Layer_1" xmlns="http://www.w3.org/2000/svg" xmlns:xlink="http://www.w3.org/1999/xlink" x="0px" y="0px"
	 width="25px" height="25px" viewBox="0 0 25 25" enable-background="new 0 0 25 25" xml:space="preserve">
<g>
	<path fill="#0057D1" d="M0,7.3c8.3,0,16.6,0,25,0c0,0.1,0,0.1,0,0.1c0,5,0,10.1,0,15.1c0,1.1-0.6,1.8-1.4,2.2
		c-0.3,0.1-0.6,0.2-0.9,0.2c-3.5,0-6.9,0-10.4,0c-3.4,0-6.7,0-10.1,0c-0.9,0-1.6-0.4-2-1.2C0.1,23.4,0,23.1,0,22.7
		c0-5.1,0-10.1,0-15.2C0,7.4,0,7.4,0,7.3z M9.5,20.5C9.6,20.5,9.6,20.5,9.5,20.5c0,0.1,0,0.1,0,0.2c0.1,0.3,0.3,0.5,0.6,0.6
		c0.3,0,0.6-0.1,0.8-0.4c0.3-0.7,0.6-1.5,0.9-2.2c1-2.5,2.1-4.9,3.1-7.3c0.1-0.2,0.2-0.5,0.3-0.7c0.2-0.5-0.1-0.9-0.5-1
		C14.5,9.5,14.2,9.7,14,10c-0.3,0.7-0.6,1.5-0.9,2.2c-0.6,1.4-1.2,2.7-1.7,4.1c-0.5,1.2-1.1,2.5-1.6,3.7C9.6,20.2,9.6,20.4,9.5,20.5
		z M5.6,15.4c0.3-0.2,0.5-0.4,0.8-0.6c0.7-0.6,1.4-1.2,2.2-1.7c0.3-0.3,0.4-0.7,0.1-1c-0.3-0.3-0.7-0.4-1-0.1
		c-0.3,0.2-0.6,0.5-0.9,0.7C6.1,13.1,5.6,13.6,5,14c-0.3,0.3-0.6,0.5-0.9,0.7c-0.3,0.2-0.4,0.5-0.3,0.8c0.1,0.2,0.2,0.3,0.4,0.5
		c1.1,0.9,2.2,1.8,3.3,2.7c0.1,0.1,0.1,0.1,0.2,0.2C7.8,19,7.9,19.1,8,19.1c0.3,0,0.6-0.2,0.7-0.5c0.1-0.3,0-0.6-0.2-0.9
		c-0.6-0.5-1.3-1-1.9-1.6C6.3,15.9,6,15.7,5.6,15.4z M19.4,15.4c-0.1,0.1-0.1,0.1-0.1,0.1c-0.5,0.4-1,0.8-1.6,1.3
		c-0.4,0.3-0.9,0.7-1.3,1c-0.4,0.3-0.3,0.9,0.1,1.2c0.3,0.2,0.6,0.1,0.9-0.1c0.8-0.6,1.5-1.2,2.3-1.9c0.4-0.3,0.9-0.7,1.3-1
		c0.3-0.3,0.3-0.7,0-1c-0.1-0.1-0.2-0.2-0.3-0.3c-1-0.8-1.9-1.6-2.9-2.3c-0.2-0.1-0.4-0.3-0.5-0.4c-0.4-0.3-1.1-0.1-1.2,0.5
		c-0.1,0.3,0.1,0.6,0.3,0.8c0.4,0.3,0.7,0.5,1,0.8c0.3,0.3,0.6,0.5,0.9,0.8C18.8,14.9,19.1,15.2,19.4,15.4z"/>
	<path fill="#0057D1" d="M12.5,5.9c-3.9,0-7.9,0-11.8,0c-0.2,0-0.4,0-0.5,0C0,5.9,0,5.8,0,5.7c0-0.4,0-0.9,0-1.3C0,3.7,0,3,0,2.2
		c0-1.1,0.8-2,1.8-2.2C2,0,2.2,0,2.3,0C9.1,0,16,0,22.8,0C24,0,24.9,0.9,25,2c0,0.2,0,0.3,0,0.5c0,1.1,0,2.1,0,3.2
		c0,0.2,0,0.2-0.2,0.2c-1.8,0-3.7,0-5.5,0C17,5.9,14.8,5.9,12.5,5.9L12.5,5.9z M19.1,4.4L19.1,4.4c0.7,0,1.5,0,2.2,0
		c0.5,0,0.9-0.5,0.7-1c-0.1-0.3-0.4-0.5-0.7-0.5c-0.7,0-1.4,0-2,0c-0.8,0-1.6,0-2.4,0c-0.4,0-0.7,0.3-0.7,0.7c0,0.4,0.3,0.7,0.7,0.7
		C17.6,4.4,18.3,4.4,19.1,4.4z M4.5,3.7c0-0.4-0.3-0.7-0.7-0.7C3.3,2.9,3,3.2,3,3.7s0.3,0.7,0.7,0.7S4.5,4.1,4.5,3.7z M10.3,3.7
		c0-0.4-0.3-0.7-0.7-0.7c-0.4,0-0.8,0.3-0.8,0.7s0.3,0.7,0.7,0.7C10,4.4,10.3,4.1,10.3,3.7z M7.4,3.7c0-0.4-0.3-0.7-0.7-0.7
		c-0.4,0-0.7,0.3-0.7,0.7c0,0.4,0.3,0.7,0.8,0.7C7.1,4.4,7.4,4.1,7.4,3.7z"/>
	<path fill="#FFFFFF" d="M9.5,20.5c0.1-0.2,0.1-0.3,0.2-0.5c0.5-1.2,1.1-2.5,1.6-3.7c0.6-1.4,1.2-2.7,1.7-4.1
		c0.3-0.7,0.6-1.5,0.9-2.2c0.2-0.4,0.5-0.6,0.9-0.5c0.4,0.1,0.7,0.6,0.5,1c-0.1,0.2-0.2,0.5-0.3,0.7c-1,2.5-2.1,4.9-3.1,7.3
		c-0.3,0.7-0.6,1.5-0.9,2.2c-0.1,0.3-0.4,0.5-0.8,0.4c-0.3,0-0.6-0.3-0.6-0.6C9.6,20.7,9.6,20.6,9.5,20.5
		C9.6,20.5,9.6,20.5,9.5,20.5z"/>
	<path fill="#FFFFFF" d="M5.6,15.4c0.3,0.3,0.7,0.5,1,0.8c0.6,0.5,1.3,1,1.9,1.6c0.3,0.2,0.4,0.6,0.2,0.9c-0.1,0.3-0.4,0.5-0.7,0.5
		c-0.1,0-0.3-0.1-0.4-0.1c-0.1,0-0.2-0.1-0.2-0.2c-1.1-0.9-2.2-1.8-3.3-2.7c-0.2-0.1-0.3-0.3-0.4-0.5c-0.1-0.3,0-0.6,0.3-0.8
		C4.4,14.5,4.7,14.3,5,14c0.6-0.5,1.2-0.9,1.7-1.4c0.3-0.3,0.6-0.5,0.9-0.7c0.3-0.3,0.8-0.2,1,0.1c0.3,0.3,0.2,0.8-0.1,1
		c-0.7,0.6-1.4,1.2-2.2,1.7C6.1,15,5.9,15.2,5.6,15.4z"/>
	<path fill="#FFFFFF" d="M19.4,15.4c-0.3-0.2-0.6-0.5-0.9-0.7c-0.3-0.3-0.6-0.5-0.9-0.8c-0.3-0.3-0.7-0.6-1-0.8
		c-0.3-0.2-0.4-0.4-0.3-0.8c0.1-0.5,0.7-0.8,1.2-0.5c0.2,0.1,0.4,0.3,0.5,0.4c1,0.8,1.9,1.6,2.9,2.3c0.1,0.1,0.2,0.2,0.3,0.3
		c0.3,0.3,0.3,0.8,0,1c-0.4,0.4-0.8,0.7-1.3,1c-0.8,0.6-1.5,1.2-2.3,1.9c-0.3,0.3-0.6,0.3-0.9,0.1c-0.4-0.2-0.5-0.8-0.1-1.2
		c0.4-0.4,0.9-0.7,1.3-1c0.5-0.4,1-0.8,1.6-1.3C19.3,15.5,19.3,15.4,19.4,15.4z"/>
	<path fill="#FFFFFF" d="M19.1,4.4c-0.7,0-1.5,0-2.2,0c-0.4,0-0.7-0.3-0.7-0.7c0-0.4,0.3-0.7,0.7-0.7c0.8,0,1.6,0,2.4,0
		c0.7,0,1.4,0,2,0c0.3,0,0.5,0.2,0.7,0.5c0.2,0.5-0.1,1-0.7,1C20.6,4.4,19.8,4.4,19.1,4.4L19.1,4.4z"/>
	<path fill="#FFFFFF" d="M4.5,3.7c0,0.4-0.3,0.7-0.7,0.7S3,4.1,3,3.7c0-0.4,0.3-0.7,0.8-0.7C4.1,2.9,4.5,3.3,4.5,3.7z"/>
	<path fill="#FFFFFF" d="M10.3,3.7c0,0.4-0.3,0.7-0.7,0.7c-0.4,0-0.7-0.3-0.7-0.7c0-0.4,0.3-0.7,0.8-0.7C10,2.9,10.3,3.2,10.3,3.7z"
		/>
	<path fill="#FFFFFF" d="M7.4,3.7c0,0.4-0.3,0.7-0.7,0.7c-0.4,0-0.8-0.3-0.8-0.7s0.3-0.7,0.7-0.7C7.1,2.9,7.4,3.2,7.4,3.7z"/>
</g>
</svg>
