<svg width="31" height="22" viewBox="0 0 31 22" fill="none" xmlns="http://www.w3.org/2000/svg">
<path d="M4.57 9.14003C5.17264 9.14003 5.76175 8.96132 6.26282 8.62651C6.7639 8.29171 7.15444 7.81583 7.38506 7.25906C7.61568 6.7023 7.67602 6.08965 7.55845 5.49859C7.44088 4.90753 7.15069 4.3646 6.72456 3.93847C6.29842 3.51234 5.7555 3.22214 5.16444 3.10457C4.57338 2.987 3.96073 3.04734 3.40396 3.27796C2.8472 3.50858 2.37132 3.89913 2.03651 4.4002C1.7017 4.90128 1.523 5.49039 1.523 6.09303C1.52353 6.90098 1.84472 7.67569 2.41603 8.24699C2.98734 8.8183 3.76205 9.1395 4.57 9.14003ZM25.896 9.14003C26.4986 9.14003 27.0877 8.96132 27.5888 8.62651C28.0899 8.29171 28.4804 7.81583 28.7111 7.25906C28.9417 6.7023 29.002 6.08965 28.8845 5.49859C28.7669 4.90753 28.4767 4.3646 28.0506 3.93847C27.6244 3.51234 27.0815 3.22214 26.4904 3.10457C25.8994 2.987 25.2867 3.04734 24.73 3.27796C24.1732 3.50858 23.6973 3.89913 23.3625 4.4002C23.0277 4.90128 22.849 5.49039 22.849 6.09303C22.8493 6.49343 22.9284 6.88985 23.0819 7.25968C23.2353 7.6295 23.4601 7.96547 23.7434 8.24841C24.0268 8.53135 24.363 8.75572 24.733 8.9087C25.1031 9.06168 25.4996 9.14029 25.9 9.14003H25.896ZM27.419 10.663H24.373C23.5684 10.6621 22.7962 10.9803 22.226 11.548C23.1901 12.0729 24.0164 12.8184 24.6375 13.7235C25.2586 14.6285 25.657 15.6677 25.8 16.756H28.942C29.142 16.7562 29.3401 16.7169 29.525 16.6404C29.7098 16.5639 29.8778 16.4517 30.0192 16.3102C30.1607 16.1688 30.2728 16.0008 30.3493 15.816C30.4258 15.6312 30.4651 15.4331 30.465 15.233V13.71C30.4645 12.9022 30.1434 12.1277 29.5723 11.5564C29.0012 10.9851 28.2268 10.6638 27.419 10.663ZM15.233 10.663C16.2876 10.6628 17.3184 10.3499 18.1951 9.76387C19.0719 9.17781 19.7551 8.34494 20.1585 7.37057C20.5619 6.3962 20.6673 5.32409 20.4614 4.28982C20.2554 3.25556 19.7474 2.30558 19.0016 1.56003C18.2558 0.814472 17.3056 0.306826 16.2712 0.101284C15.2369 -0.104259 14.1648 0.00153375 13.1906 0.405283C12.2164 0.809032 11.3838 1.4926 10.798 2.36956C10.2123 3.24651 9.8998 4.27746 9.9 5.33203C9.89974 6.03234 10.0375 6.72585 10.3055 7.37288C10.5734 8.01992 10.9662 8.6078 11.4615 9.10291C11.9568 9.59801 12.5449 9.99064 13.192 10.2583C13.8391 10.526 14.5327 10.6636 15.233 10.663ZM18.889 12.186H18.489C17.475 12.6871 16.3591 12.9478 15.228 12.9478C14.0969 12.9478 12.981 12.6871 11.967 12.186H11.567C10.1144 12.1889 8.72221 12.768 7.69598 13.7961C6.66975 14.8242 6.09326 16.2174 6.093 17.67V19.041C6.09327 19.647 6.33409 20.228 6.76255 20.6565C7.19102 21.0849 7.77206 21.3258 8.378 21.326H22.088C22.6939 21.3258 23.275 21.0849 23.7034 20.6565C24.1319 20.228 24.3727 19.647 24.373 19.041V17.67C24.3727 16.2157 23.7949 14.8209 22.7665 13.7925C21.7381 12.7642 20.3434 12.1863 18.889 12.186ZM8.24 11.55C7.66977 10.9823 6.89763 10.6641 6.093 10.665H3.047C2.23939 10.6656 1.46499 10.9865 0.893737 11.5573C0.322486 12.1282 0.00105966 12.9024 3.28761e-07 13.71V15.233C-0.000131147 15.4331 0.0391727 15.6312 0.115664 15.816C0.192155 16.0008 0.304334 16.1688 0.445783 16.3102C0.587233 16.4517 0.75518 16.5639 0.940018 16.6404C1.12486 16.7169 1.32296 16.7562 1.523 16.756H4.66C4.80537 15.6679 5.20531 14.6294 5.82734 13.7248C6.44937 12.8203 7.27597 12.0752 8.24 11.55Z" fill="#3481C4"/>
</svg>
