<svg xmlns="http://www.w3.org/2000/svg" width="25.696" height="20.557" viewBox="0 0 25.696 20.557">
  <defs>
    <style>
      .cls-1 {
        fill: #fff;
      }
    </style>
  </defs>
  <path id="icon_add_new_member" data-name="icon_add new member" class="cls-1" d="M25.053,8.351h-2.57V5.782a.644.644,0,0,0-.642-.642H20.557a.644.644,0,0,0-.642.642v2.57h-2.57a.644.644,0,0,0-.642.642v1.285a.644.644,0,0,0,.642.642h2.57v2.57a.644.644,0,0,0,.642.642h1.285a.644.644,0,0,0,.642-.642v-2.57h2.57a.644.644,0,0,0,.642-.642V8.994A.644.644,0,0,0,25.053,8.351ZM8.994,10.278A5.139,5.139,0,1,0,3.854,5.139,5.139,5.139,0,0,0,8.994,10.278Zm3.6,1.285H11.92a6.989,6.989,0,0,1-5.854,0H5.4a5.4,5.4,0,0,0-5.4,5.4v1.67a1.928,1.928,0,0,0,1.927,1.927H16.06a1.928,1.928,0,0,0,1.927-1.927v-1.67A5.4,5.4,0,0,0,12.591,11.563Z"/>
</svg>
