<svg width="16" height="16" viewBox="0 0 16 16" fill="none" xmlns="http://www.w3.org/2000/svg">
<path d="M8 4.00839e-06C6.41775 4.00839e-06 4.87103 0.469196 3.55544 1.34825C2.23985 2.2273 1.21447 3.47673 0.608967 4.93854C0.00346625 6.40035 -0.15496 8.00888 0.153721 9.56073C0.462403 11.1126 1.22433 12.538 2.34315 13.6569C3.46197 14.7757 4.88743 15.5376 6.43928 15.8463C7.99113 16.155 9.59966 15.9965 11.0615 15.391C12.5233 14.7855 13.7727 13.7602 14.6518 12.4446C15.5308 11.129 16 9.58225 16 8C16.0011 6.94913 15.7948 5.90837 15.3932 4.93729C14.9915 3.96621 14.4023 3.08388 13.6592 2.3408C12.9161 1.59772 12.0338 1.00849 11.0627 0.606824C10.0916 0.205159 9.05087 -0.00104844 8 4.00839e-06ZM12 10.871L10.871 12L8 9.127L5.127 12L4 10.871L6.871 8L4 5.127L5.127 4L8 6.871L10.871 4L12 5.127L9.127 8L12 10.871Z" fill="#787879"/>
</svg>
