<svg width="10" height="8" viewBox="0 0 10 8" fill="none" xmlns="http://www.w3.org/2000/svg">
<mask id="mask0_3448_35953" style="mask-type:luminance" maskUnits="userSpaceOnUse" x="0" y="0" width="10" height="8">
<path d="M10 0H0V8H10V0Z" fill="white"/>
</mask>
<g mask="url(#mask0_3448_35953)">
<path d="M12.0712 -5.49991C12.3239 -5.50487 12.5751 -5.459 12.8097 -5.36504C13.0444 -5.27107 13.2578 -5.13092 13.4372 -4.95291C13.6184 -4.78298 13.762 -4.57707 13.859 -4.34838C13.9559 -4.11969 14.004 -3.87327 14.0002 -3.62491V10.1251C14.0042 10.3734 13.9562 10.6198 13.8595 10.8484C13.7627 11.0771 13.6192 11.2831 13.4382 11.4531C13.2588 11.6311 13.0454 11.7713 12.8107 11.8652C12.5761 11.9592 12.3249 12.0051 12.0722 12.0001H-2.07079C-2.32351 12.0051 -2.57465 11.9592 -2.8093 11.8652C-3.04396 11.7713 -3.25734 11.6311 -3.43679 11.4531C-3.61796 11.2832 -3.76162 11.0773 -3.85857 10.8486C-3.95552 10.6199 -4.00362 10.3735 -3.99979 10.1251V-3.62491C-4.00362 -3.87327 -3.95552 -4.11969 -3.85857 -4.34838C-3.76162 -4.57707 -3.61796 -4.78298 -3.43679 -4.95291C-3.25734 -5.13092 -3.04396 -5.27107 -2.8093 -5.36504C-2.57465 -5.459 -2.32351 -5.50487 -2.07079 -5.49991H-0.142783V-7.53091C-0.14344 -7.59316 -0.131056 -7.65486 -0.106427 -7.71204C-0.0817981 -7.76922 -0.0454709 -7.82061 0.0002141 -7.86291C0.0451241 -7.90751 0.0985437 -7.94262 0.157294 -7.96615C0.216054 -7.98969 0.278934 -8.00117 0.342214 -7.99991H1.94621C2.00949 -8.00117 2.07238 -7.98969 2.13113 -7.96615C2.18988 -7.94262 2.2433 -7.90751 2.28821 -7.86291C2.33354 -7.82044 2.36949 -7.76897 2.39377 -7.7118C2.41805 -7.65462 2.43012 -7.59301 2.42921 -7.53091V-5.49991H5.00071H7.57221V-7.53091C7.5713 -7.59301 7.58337 -7.65462 7.60765 -7.7118C7.63193 -7.76897 7.66789 -7.82044 7.71321 -7.86291C7.75812 -7.90751 7.81154 -7.94262 7.87029 -7.96615C7.92905 -7.98969 7.99193 -8.00117 8.05521 -7.99991H9.6622C9.7255 -8.00117 9.7884 -7.98969 9.8471 -7.96615C9.9059 -7.94262 9.9593 -7.90751 10.0042 -7.86291C10.0495 -7.82044 10.0855 -7.76897 10.1098 -7.7118C10.1341 -7.65462 10.1461 -7.59301 10.1452 -7.53091V-5.49991H12.0712ZM11.8302 10.1251C11.8921 10.1214 11.95 10.0934 11.9912 10.0471C12.0144 10.0278 12.0334 10.0041 12.0472 9.97729C12.0609 9.95047 12.0691 9.92115 12.0712 9.89109V-1.74991H-2.07079V9.89109C-2.06868 9.92115 -2.06051 9.95047 -2.04676 9.97729C-2.03301 10.0041 -2.01397 10.0278 -1.99079 10.0471C-1.94957 10.0934 -1.89167 10.1214 -1.82979 10.1251H11.8302ZM9.7002 2.27309C9.7509 2.23862 9.7922 2.19202 9.8203 2.13753C9.8484 2.08304 9.8625 2.02239 9.8612 1.96109C9.8603 1.89446 9.8455 1.82875 9.8178 1.76815C9.79 1.70754 9.75 1.65338 9.7002 1.60909L8.81621 0.750099C8.76938 0.701199 8.71321 0.662197 8.65103 0.635401C8.58885 0.608605 8.52192 0.594559 8.45421 0.594099C8.3921 0.592346 8.33049 0.605613 8.2746 0.632773C8.21871 0.659932 8.17021 0.700181 8.13321 0.750099L3.67321 5.05009L1.90621 3.28909C1.80143 3.21186 1.67438 3.17079 1.54421 3.17209C1.48561 3.16926 1.42704 3.17815 1.37192 3.19825C1.3168 3.21834 1.26625 3.24922 1.22321 3.28909L0.299214 4.18909C0.248654 4.22348 0.207464 4.26992 0.179354 4.32421C0.151244 4.37851 0.137104 4.43896 0.138214 4.50009C0.139144 4.56673 0.153944 4.63244 0.181664 4.69304C0.209384 4.75364 0.249414 4.80781 0.299214 4.85209L3.31221 7.78209C3.34921 7.83201 3.39771 7.87226 3.4536 7.89942C3.50949 7.92658 3.5711 7.93985 3.63321 7.93809C3.7652 7.9402 3.89419 7.89873 4.00021 7.82009L9.7002 2.27309Z" fill="#707070"/>
</g>
</svg>
