<svg width="27" height="23" viewBox="0 0 27 23" fill="none" xmlns="http://www.w3.org/2000/svg">
<path d="M26.0079 10.6649L25.9279 10.848C25.8391 11.0606 25.681 11.2369 25.4793 11.3482C25.2776 11.4595 25.0441 11.4993 24.8169 11.461C24.5846 11.4223 24.3733 11.303 24.2204 11.1239C24.0675 10.9448 23.9827 10.7175 23.9809 10.482C23.9689 9.74596 23.9809 9.00894 23.9809 8.27294C23.9809 6.96094 23.9809 5.64995 23.9809 4.28695C23.8689 4.35295 23.7859 4.39894 23.7049 4.44994C20.9109 6.18328 18.1172 7.92062 15.3239 9.66195C14.5359 10.1861 13.5956 10.4325 12.6519 10.362C11.9597 10.2916 11.2946 10.0556 10.7129 9.67394C7.93422 7.94461 5.15488 6.21628 2.37488 4.48895C2.27488 4.42795 2.1749 4.36996 2.0379 4.28896V4.59994C2.0379 8.27327 2.0379 11.947 2.0379 15.621C2.01424 15.9182 2.0555 16.2171 2.15887 16.4968C2.26225 16.7765 2.42524 17.0304 2.63654 17.2409C2.84783 17.4513 3.10236 17.6133 3.38251 17.7155C3.66265 17.8177 3.96167 17.8578 4.25885 17.8329C6.83152 17.8329 9.40457 17.8329 11.9779 17.8329C12.1902 17.8132 12.4034 17.8596 12.5883 17.9658C12.7732 18.0719 12.9208 18.2327 13.0109 18.426C13.0795 18.572 13.1121 18.7324 13.1059 18.8937C13.0997 19.055 13.0549 19.2125 12.9752 19.3528C12.8956 19.4932 12.7834 19.6125 12.6481 19.7005C12.5129 19.7886 12.3585 19.8429 12.1979 19.8589C12.1314 19.865 12.0646 19.8673 11.9979 19.866C9.36586 19.866 6.7329 19.873 4.0979 19.866C3.24496 19.8737 2.41136 19.6117 1.71631 19.1172C1.02125 18.6228 0.500317 17.9212 0.227905 17.1129C0.127905 16.8369 0.0788594 16.5459 0.00585938 16.2609V3.60894C0.0969093 3.19992 0.219997 2.7987 0.373901 2.40896C0.689332 1.67086 1.22162 1.04608 1.90027 0.617455C2.57892 0.188832 3.37187 -0.023374 4.17389 0.00896484C10.0646 -0.00103516 15.9548 -0.00103516 21.8448 0.00896484C21.9288 0.00896484 22.0139 0.00896484 22.0989 0.00896484C22.8314 0.0278641 23.5443 0.249567 24.1583 0.649437C24.7723 1.04931 25.2634 1.61166 25.5769 2.27395C25.7578 2.70721 25.9036 3.15433 26.0129 3.61095L26.0079 10.6649ZM23.1129 2.41296C22.7254 2.14185 22.2592 2.00647 21.7869 2.02795C15.9302 2.02795 10.0735 2.02795 4.21686 2.02795C4.10674 2.02555 3.99662 2.02924 3.8869 2.03896C3.52856 2.06726 3.18573 2.19737 2.89886 2.41396C2.98886 2.47296 3.06388 2.52594 3.14288 2.57494C6.01555 4.36094 8.88752 6.14763 11.7589 7.93496C12.1235 8.19295 12.5592 8.3315 13.0059 8.3315C13.4525 8.3315 13.8882 8.19295 14.2529 7.93496C17.1195 6.14029 19.9916 4.35361 22.8689 2.57494C22.9469 2.52994 23.0219 2.47695 23.1129 2.41695V2.41296ZM26.0079 19.047C25.8549 19.395 25.7079 19.747 25.5479 20.09C25.5018 20.225 25.4279 20.3489 25.3311 20.4537C25.2342 20.5585 25.1164 20.6418 24.9854 20.6984C24.8544 20.7549 24.713 20.7833 24.5703 20.7819C24.4276 20.7804 24.2867 20.7491 24.1569 20.69L24.0139 20.6399C23.7317 20.4906 23.4235 20.3969 23.1059 20.3639C22.807 20.4554 22.5333 20.6145 22.3059 20.8289C22.2278 20.8984 22.1762 20.9927 22.1599 21.0959C22.0949 21.4189 22.0599 21.7479 21.9949 22.0709C21.9549 22.3027 21.8346 22.5129 21.655 22.6647C21.4754 22.8165 21.248 22.9002 21.0129 22.901C20.6999 22.911 20.3869 22.91 20.0739 22.901C19.8429 22.8994 19.6196 22.818 19.4419 22.6706C19.2642 22.5231 19.143 22.3186 19.0989 22.0919C19.0239 21.7449 18.9769 21.392 18.8989 21.047C18.8554 20.9471 18.7905 20.858 18.7089 20.7859C18.6839 20.7559 18.6279 20.753 18.5999 20.724C18.4592 20.579 18.2699 20.4911 18.0684 20.4771C17.8669 20.463 17.6673 20.5239 17.5079 20.6479C17.3195 20.744 17.1214 20.8194 16.9169 20.8729C16.7098 20.9421 16.4854 20.9386 16.2806 20.8632C16.0757 20.7878 15.9026 20.6448 15.7899 20.4579C15.5882 20.135 15.4046 19.8012 15.2399 19.4579C15.1386 19.2545 15.1118 19.0221 15.1642 18.801C15.2167 18.5799 15.345 18.3842 15.5269 18.2479C15.7859 18.0299 16.0569 17.827 16.3219 17.616C16.3829 17.5707 16.4322 17.5114 16.4653 17.4431C16.4985 17.3747 16.5146 17.2994 16.5123 17.2234C16.5101 17.1475 16.4895 17.0732 16.4523 17.007C16.4152 16.9407 16.3625 16.8845 16.2989 16.8429C16.0459 16.6739 15.7889 16.5099 15.5379 16.3379C15.3073 16.2036 15.1393 15.9833 15.0709 15.7254C15.0025 15.4675 15.0392 15.1929 15.1729 14.9619C15.3229 14.6593 15.4809 14.3593 15.6469 14.0619C15.7568 13.8388 15.9455 13.6643 16.1765 13.572C16.4074 13.4796 16.6644 13.4761 16.8979 13.5619C17.2129 13.6619 17.5219 13.773 17.8339 13.88C17.881 13.899 17.9295 13.9147 17.9789 13.927C18.3587 13.8041 18.693 13.5704 18.9389 13.2559C18.9959 12.9479 19.0479 12.64 19.1049 12.332C19.1346 12.067 19.2658 11.8239 19.4709 11.6535C19.6759 11.4831 19.939 11.3987 20.2049 11.418C20.4589 11.418 20.7129 11.418 20.9669 11.418C21.2151 11.4059 21.4591 11.4862 21.6517 11.6433C21.8443 11.8004 21.9719 12.0233 22.0099 12.2689C22.0809 12.6079 22.1309 12.9519 22.2099 13.2899C22.2422 13.3779 22.297 13.4558 22.3689 13.516C22.4149 13.562 22.4979 13.57 22.5429 13.616C22.8619 13.94 23.1959 13.853 23.5479 13.68C23.7388 13.5894 23.9364 13.5135 24.1389 13.453C24.3402 13.3801 24.5602 13.3768 24.7636 13.4437C24.967 13.5106 25.1421 13.6438 25.2609 13.822C25.5329 14.227 25.7679 14.6559 26.0189 15.0749V15.4809C25.9017 15.8081 25.6767 16.0856 25.3809 16.268C25.1859 16.402 25.0039 16.553 24.8169 16.697C24.7477 16.7357 24.6904 16.7927 24.6512 16.8617C24.6121 16.9306 24.5925 17.009 24.5947 17.0883C24.5968 17.1676 24.6206 17.2448 24.6635 17.3115C24.7064 17.3783 24.7667 17.432 24.8379 17.4669C25.0089 17.5899 25.1749 17.722 25.3529 17.835C25.6624 18.0123 25.8984 18.2942 26.0189 18.63L26.0079 19.047ZM22.5739 17.215C22.5828 16.8154 22.4735 16.422 22.2596 16.0844C22.0458 15.7467 21.7369 15.4798 21.3718 15.3171C21.0067 15.1544 20.6017 15.1032 20.2076 15.17C19.8136 15.2367 19.448 15.4184 19.1569 15.6923C18.8657 15.9661 18.662 16.3199 18.5713 16.7092C18.4806 17.0985 18.5069 17.5058 18.647 17.8802C18.787 18.2545 19.0346 18.5791 19.3586 18.8132C19.6825 19.0473 20.0685 19.1805 20.4679 19.1959C20.7363 19.2058 21.0039 19.1624 21.2554 19.0682C21.5068 18.974 21.7371 18.8309 21.933 18.6472C22.1288 18.4634 22.2863 18.2427 22.3963 17.9977C22.5063 17.7527 22.5666 17.4884 22.5739 17.22V17.215Z" fill="#1E2327"/>
</svg>
