<svg width="22" height="22" viewBox="0 0 22 22" fill="none" xmlns="http://www.w3.org/2000/svg">
<path d="M11 7.71253e-06C8.08624 -0.00344226 5.29043 1.15067 3.22756 3.20848C1.16469 5.26629 0.00371077 8.05925 0 10.973V11C0 13.1756 0.645139 15.3023 1.85383 17.1113C3.06253 18.9202 4.78049 20.3301 6.79048 21.1627C8.80047 21.9952 11.0122 22.2131 13.146 21.7886C15.2798 21.3642 17.2398 20.3166 18.7782 18.7782C20.3166 17.2398 21.3642 15.2798 21.7886 13.146C22.2131 11.0122 21.9952 8.80048 21.1627 6.79049C20.3301 4.7805 18.9202 3.06254 17.1113 1.85384C15.3023 0.645146 13.1756 7.71253e-06 11 7.71253e-06ZM11 19.068C8.8665 19.0741 6.81795 18.2325 5.30493 16.7283C3.79192 15.2241 2.93836 13.1805 2.932 11.047V11C2.92616 8.86659 3.76785 6.81819 5.27199 5.30523C6.77614 3.79227 8.81959 2.93863 10.953 2.93201H11C13.1335 2.9259 15.1821 3.7675 16.6951 5.27171C18.2081 6.77591 19.0616 8.81951 19.068 10.953V11C19.0712 12.0564 18.8662 13.1032 18.4648 14.0804C18.0634 15.0576 17.4734 15.9462 16.7286 16.6954C15.9838 17.4446 15.0986 18.0397 14.1238 18.4468C13.1489 18.8539 12.1034 19.065 11.047 19.068H11ZM15.987 8.28801C15.9868 8.73748 15.8534 9.1768 15.6035 9.55044C15.3537 9.92408 14.9987 10.2153 14.5834 10.3872C14.1681 10.5591 13.7111 10.604 13.2703 10.5163C12.8295 10.4285 12.4246 10.2121 12.1067 9.89426C11.7889 9.57644 11.5725 9.17152 11.4847 8.73069C11.397 8.28987 11.4419 7.83293 11.6138 7.41763C11.7857 7.00233 12.0769 6.64733 12.4506 6.39749C12.8242 6.14766 13.2635 6.01421 13.713 6.01401C14.3152 6.0169 14.8919 6.25741 15.3178 6.68324C15.7436 7.10907 15.9841 7.6858 15.987 8.28801ZM15.987 13.714C15.9872 14.1636 15.8541 14.6031 15.6045 14.977C15.3549 15.3509 15 15.6424 14.5848 15.8146C14.1695 15.9868 13.7125 16.032 13.2715 15.9445C12.8306 15.857 12.4255 15.6407 12.1075 15.323C11.7894 15.0052 11.5728 14.6003 11.4849 14.1594C11.397 13.7185 11.4418 13.2615 11.6136 12.8461C11.7855 12.4307 12.0767 12.0756 12.4504 11.8256C12.824 11.5757 13.2634 11.4422 13.713 11.442C14.3147 11.4449 14.891 11.685 15.3167 12.1102C15.7425 12.5354 15.9833 13.1123 15.987 13.714ZM10.561 13.714C10.5612 14.1636 10.428 14.6032 10.1783 14.9772C9.92866 15.3511 9.57368 15.6426 9.1583 15.8148C8.74292 15.987 8.28582 16.0321 7.84481 15.9444C7.40379 15.8567 6.99869 15.6402 6.68075 15.3223C6.3628 15.0043 6.1463 14.5992 6.05863 14.1582C5.97095 13.7172 6.01605 13.2601 6.18821 12.8447C6.36038 12.4293 6.65187 12.0743 7.02581 11.8247C7.39976 11.575 7.83936 11.4418 8.289 11.442C8.89035 11.4454 9.46611 11.6857 9.89143 12.1109C10.3167 12.536 10.5573 13.1127 10.561 13.714ZM10.561 8.28801C10.5606 8.73748 10.427 9.17674 10.177 9.55027C9.92696 9.9238 9.57183 10.2148 9.15645 10.3866C8.74108 10.5583 8.28412 10.603 7.84334 10.5151C7.40255 10.4272 6.99773 10.2105 6.68004 9.89255C6.36236 9.57459 6.14607 9.16958 6.05853 8.72871C5.97099 8.28785 6.01612 7.83093 6.18821 7.41571C6.36031 7.00049 6.65165 6.64561 7.0254 6.39594C7.39915 6.14627 7.83853 6.01301 8.288 6.01301C8.89029 6.0159 9.46706 6.25658 9.89276 6.68266C10.3185 7.10874 10.5586 7.68571 10.561 8.28801Z" fill="#1E2327"/>
</svg>
