<svg width="24" height="24" viewBox="0 0 24 24" fill="none" xmlns="http://www.w3.org/2000/svg">
<path d="M9 -9.61457e-05C8.19729 -0.0165174 7.42072 0.285483 6.84 0.839904C6.28558 1.42062 5.98358 2.19719 6 2.9999C6.12632 3.7706 6.41245 4.50635 6.84 5.1599C6.92497 5.43126 6.95556 5.71671 6.93 5.9999H0V23.9999H6.93C6.94029 23.717 6.90998 23.4342 6.84 23.1599C6.41245 22.5064 6.12632 21.7706 6 20.9999C5.98358 20.1972 6.28558 19.4206 6.84 18.8399C7.42072 18.2855 8.19729 17.9835 9 17.9999C9.80271 17.9835 10.5793 18.2855 11.16 18.8399C11.7144 19.4206 12.0164 20.1972 12 20.9999C11.8737 21.7706 11.5876 22.5064 11.16 23.1599C11.075 23.4313 11.0444 23.7167 11.07 23.9999H18V17.0699C18.2829 17.0596 18.5657 17.0899 18.84 17.1599C19.4935 17.5875 20.2293 17.8736 21 17.9999C21.7956 17.9999 22.5587 17.6838 23.1213 17.1212C23.6839 16.5586 24 15.7956 24 14.9999C24 14.2043 23.6839 13.4412 23.1213 12.8786C22.5587 12.316 21.7956 11.9999 21 11.9999C20.2293 12.1262 19.4935 12.4123 18.84 12.8399C18.5686 12.9249 18.2832 12.9555 18 12.9299V5.9999H11.07C11.0597 5.71704 11.09 5.43417 11.16 5.1599C11.5876 4.50635 11.8737 3.7706 12 2.9999C12.0164 2.19719 11.7144 1.42062 11.16 0.839904C10.5793 0.285483 9.80271 -0.0165174 9 -9.61457e-05Z" fill="#1E2327"/>
</svg>
