<svg width="23" height="29" viewBox="0 0 23 29" fill="none" xmlns="http://www.w3.org/2000/svg">
<path d="M8.00007 24.4069H14.772C14.772 26.5869 13.572 28.1339 11.39 28.1339C9.20796 28.1339 8.00007 26.5859 8.00007 24.4069ZM1.4029 23.0719C1.14375 23.0709 0.889949 22.9981 0.669745 22.8615C0.449541 22.7248 0.271724 22.5298 0.155829 22.298C0.0399334 22.0662 -0.0093189 21.8068 0.0134949 21.5486C0.0363088 21.2905 0.130228 21.0437 0.284979 20.8359C1.36698 19.4009 3.49811 18.5719 3.49811 12.1799C3.49811 5.61987 6.38797 2.99089 9.09797 2.35089C9.35097 2.28689 9.53498 2.19488 9.53498 1.93488V1.73489C9.53365 1.27826 9.7135 0.839706 10.035 0.515411C10.3565 0.191116 10.7934 0.00752805 11.2501 0.00488281C11.7063 0.00883863 12.1425 0.192836 12.4637 0.516846C12.7849 0.840856 12.9649 1.27866 12.9649 1.73489V1.93488C12.9649 2.20288 13.1489 2.28689 13.4019 2.35089C16.1019 2.98289 19.002 5.61987 19.002 12.1799C19.002 18.5719 21.1329 19.4089 22.2149 20.8359C22.3693 21.0432 22.4633 21.2892 22.4864 21.5467C22.5095 21.8041 22.4609 22.0629 22.346 22.2944C22.2311 22.526 22.0543 22.7211 21.8353 22.8584C21.6162 22.9956 21.3635 23.0695 21.105 23.0719H1.4029Z" fill="#1E2327"/>
</svg>
